<mxfile host="app.diagrams.net" modified="2024-05-08T20:48:38.265Z" agent="Mozilla/5.0 (Windows NT 10.0; Win64; x64) AppleWebKit/537.36 (KHTML, like Gecko) Chrome/124.0.0.0 Safari/537.36 Edg/124.0.0.0" etag="NuK_xZ_NyijcgkdcKY9D" version="24.3.1" type="github">
  <diagram name="Page-1" id="_5PKD3IPoMPl897ydy_b">
    <mxGraphModel dx="1386" dy="785" grid="1" gridSize="10" guides="1" tooltips="1" connect="1" arrows="1" fold="1" page="1" pageScale="1" pageWidth="850" pageHeight="1100" math="0" shadow="0">
      <root>
        <mxCell id="0" />
        <mxCell id="1" parent="0" />
        <mxCell id="lEaRyh61AleIMzdtigNR-11" value="Version 1" style="rounded=0;whiteSpace=wrap;html=1;dashed=1;verticalAlign=bottom;" vertex="1" parent="1">
          <mxGeometry x="40" y="340" width="160" height="220" as="geometry" />
        </mxCell>
        <mxCell id="lEaRyh61AleIMzdtigNR-21" style="edgeStyle=orthogonalEdgeStyle;rounded=0;orthogonalLoop=1;jettySize=auto;html=1;entryX=0.5;entryY=0;entryDx=0;entryDy=0;exitX=0;exitY=0.5;exitDx=0;exitDy=0;" edge="1" parent="1" source="lEaRyh61AleIMzdtigNR-1" target="lEaRyh61AleIMzdtigNR-11">
          <mxGeometry relative="1" as="geometry" />
        </mxCell>
        <mxCell id="lEaRyh61AleIMzdtigNR-22" style="edgeStyle=orthogonalEdgeStyle;rounded=0;orthogonalLoop=1;jettySize=auto;html=1;entryX=0.5;entryY=0;entryDx=0;entryDy=0;exitX=1;exitY=0.5;exitDx=0;exitDy=0;" edge="1" parent="1" source="lEaRyh61AleIMzdtigNR-1" target="lEaRyh61AleIMzdtigNR-3">
          <mxGeometry relative="1" as="geometry" />
        </mxCell>
        <mxCell id="lEaRyh61AleIMzdtigNR-1" value="" style="image;html=1;image=img/lib/clip_art/people/Farmer_Man_128x128.png" vertex="1" parent="1">
          <mxGeometry x="200" y="190" width="80" height="90" as="geometry" />
        </mxCell>
        <mxCell id="lEaRyh61AleIMzdtigNR-15" style="edgeStyle=orthogonalEdgeStyle;rounded=0;orthogonalLoop=1;jettySize=auto;html=1;entryX=0;entryY=0.5;entryDx=0;entryDy=0;endArrow=none;endFill=0;dashed=1;" edge="1" parent="1" source="lEaRyh61AleIMzdtigNR-3" target="lEaRyh61AleIMzdtigNR-12">
          <mxGeometry relative="1" as="geometry" />
        </mxCell>
        <mxCell id="lEaRyh61AleIMzdtigNR-17" style="edgeStyle=orthogonalEdgeStyle;rounded=0;orthogonalLoop=1;jettySize=auto;html=1;entryX=1;entryY=0.5;entryDx=0;entryDy=0;endArrow=none;endFill=0;dashed=1;" edge="1" parent="1" source="lEaRyh61AleIMzdtigNR-3" target="lEaRyh61AleIMzdtigNR-5">
          <mxGeometry relative="1" as="geometry">
            <Array as="points">
              <mxPoint x="330" y="470" />
            </Array>
          </mxGeometry>
        </mxCell>
        <mxCell id="lEaRyh61AleIMzdtigNR-3" value="Single Front Door" style="rounded=1;whiteSpace=wrap;html=1;verticalAlign=top;" vertex="1" parent="1">
          <mxGeometry x="270" y="350" width="120" height="60" as="geometry" />
        </mxCell>
        <mxCell id="lEaRyh61AleIMzdtigNR-4" value="Rural Payments Portal" style="rounded=1;whiteSpace=wrap;html=1;verticalAlign=top;fontSize=11;" vertex="1" parent="1">
          <mxGeometry x="60" y="350" width="120" height="60" as="geometry" />
        </mxCell>
        <mxCell id="lEaRyh61AleIMzdtigNR-5" value="Data" style="rounded=1;whiteSpace=wrap;html=1;verticalAlign=top;" vertex="1" parent="1">
          <mxGeometry x="60" y="440" width="120" height="60" as="geometry" />
        </mxCell>
        <mxCell id="lEaRyh61AleIMzdtigNR-6" value="" style="image;aspect=fixed;html=1;points=[];align=center;fontSize=12;image=img/lib/azure2/compute/Kubernetes_Services.svg;" vertex="1" parent="1">
          <mxGeometry x="315" y="374" width="30" height="26.47" as="geometry" />
        </mxCell>
        <mxCell id="lEaRyh61AleIMzdtigNR-7" value="" style="shape=image;verticalLabelPosition=bottom;labelBackgroundColor=default;verticalAlign=top;aspect=fixed;imageAspect=0;image=data:image/png,iVBORw0KGgoAAAANSUhEUgAAAOkAAADYCAMAAAA5zzTZAAAAz1BMVEX///8At7YAk48F0qIAjYm72dcAsrEA0J0Az5sAkIwAuLcAtbcD06EAsbAAkI4Ajo31/PzF8uVfyslV3Lfd+PDf9PTr+fno+vWt4uLJ7Oy+6OiY29tK2rM62K++8eLy/fqD1NR54sRt4MA/wsEcyLLR9euw7dzi+fIe1aif6tQTwLUOwrKF5MnG6+tOxcWv4+OTx8VLqKUYyqQLyqyP2Ndvzs2X6NAYvrgPn5yfzcyu1tRfsK3M5eRyuLYYpaJ5u7mG0sQlrp8gtqAZvqEapJlywCd7AAAJzElEQVR4nO1ceV/bOBTEqE0CNVe5CuXuAqGlx0JL6S7dbtv9/p9pbdlWJFnHe/IhyT/P34nR8OKZ0cjJ0tKIESNGjBgxIl5s+l5AX9j56nsFfWF78sr3EvrB1vxF4nsN/WB+/2Jy5nsRfeBm9i5JJnu+l9E9Nqfp2yRJPvheR/c4J+lqxnRy4HshXWNnSjJByrDqeyVd44iQO8p06E5zMiPpHwnFZNhJaU5I+q5k+sX3YrrEwzRj+jUpqe76Xk53OM2IkvlqyTR543s93eEiZ1oIEh3qoe8FdYWdWUY0vWdMh+s0mcMsBIkO9bXvJXWDkyll+jbhqA7TaQhFusoxTQbpNA90pGUWZEMdoNPsF0TJvcB0iE5zUTCtsuBwneZyVt6m70Smw3OaY6ISpHyon30vrV1clXepJEiU6qCKlk1S4a7GNHnpe3Vt4rYaaXpfI5qsDaho2Z9VI60J0sCcZpt9eIUsyO7UwRQtW2ykhMjSW8D3CtvCfEG0Lr10qGe+l9gObhYjTe+VTAcSfxcOU8+Cw3Ka8ynHVCVIdKgDcJrrGT9TtSAlg4i/RxxRjSDRoUbvNFtTnqkiCzLEXrTMeaJaQUrir/RvhJEqs2CFtaid5lQgujioUCLqw+NzkakmC1af34iLlh2JqF56KSJ2mmORqNwL1oYabaV/MhOJmqS3oBqr00gT1WdBhkid5mEqMzUKEh1qlE5zKhO1CVKOKIuWixpTUxashhqh01zOZKJWQcoRodPIDmPJgmyo0TnNVe2za8mCjGpsTlPjyT+0YkRkTnNbHylEeulQo3KafQVRXS9YQ1ROs61iCpFeOtSInKbuMASSBStE5DR1hyGQLMiGGs3h8ZVqpFBBolQjOTzeVPEEZUGGSCp9uVJBChIdahSV/rWSKCwLMkThNNtKosAsyIYaQaW/pZSjTJAwRJMYDo/naqIoQUpiODy+Ud+l8CzIqAYef081E8VJL0Xglf65lik4C7KhBu001xo5IpaDCiWCjr9HWqKILMiGGrDTnGjkiKClt0C4RYvOYXJBcmAa7uFxrbTnmKKyIKMaqNPUS3uOKSoLMgTqNPXSnoMT0UCLlh29wzgKUhKo0ygrlerDi82CbKgBVvqK0p5jis6CDOE5jYGnSxZkCM5pDA6TA58FK4T2mNK+SY6csiBDYEWL0WGsD60YEZbTKEt77jZ1yYIMQTmNPvAWTJ2yIBtqQJW+0WGIcxZkVIOp9DWlPce0yYc3CajSVx0LCzhuyDSUosXiMIRMzw8mzagG4jSa0p5jerW06x4d6FA/+iaZQ1fac0wvs3v5TaOxroYQfy0OkzM9zV/3sgnVECp9XWnPYV688qwRVe9Os2knSrbL175qQtW702hLe+7D+1C9uIkE+3YaY6VSMT1hL99rIMGe46++tOeYXi9e30CC/Vb68pP2aqbCW764f4J9Oo3dYTIci+/57ErVp9NYKpVypOfSuw7XXKl6K1pMpT3H9Ep+34EjU3+VvqVSqZhe1t7oKsGT9x5YLlkrFcZUJSQf3G5WT04DcRjCsqAENwn2U+mDHIYssqCE125UfTgNjCeXBSUcOlH1UOmDHIYIWVDCrtNQe3ca1ZP2aqb72ms4RcPeixaYw+QwXcVBgvuu9IEOQ2pZUILD7rxnpzEdC4sf3lvzhfC7836dxlbac0xrWVACfnc+Oe2FYwEoT2UWlIAvSHt0Gmtpv8DMbvVoCe7PaaylPQd1FpSALUh7cxrVd7l0uABd8Qy3Ze2r0oc7THab3sCu+RE51W4ZVgBVKhVTbRaUgJPgfg6P4Q5DjFlQAm533kelbz0WFoG4MEqCe6j0EQ6T4QhzaczuvPsfEzU8aa/68FqyoARMQdq501iPhUWmtiwoAbE779pp7MfCItMd5PUxu/NOCDJgHCbDDP0H9lahY+220gccCwsAZUEJ4N15l06j/S6XDrAsKAG8O+/QadTfFtYDmgUlQAvS7g6PIcfCAmZbbn/oPZBqZ0ULsLTnZgrOghKAu/OuDo8N3+XSwflvQaNhN5U+0mEIMgtKAO3Ou3EaaGm/ADILSgBFwy6e0ocdC4tMkVlQAqgg7eDwGF7aL5his6AEyNl5+5U+plKpgM+CEiC789adBlzac3DJgiIAEtx2pY+qVEpMnbKgBPvuvOXDY7zDOGdBCa+tBWmrlT7eYYh7FpRwaB1qi05z6iBHGdM2Top2Pz0+2nSpxaLFwWFIG4K09+3x2cryio1qe07j4jBE+9AKFJt//fks40mRmLm25jQuDtM0Cz7/e6WimWPN/FvkLVX6Lg5DGmXBp+8CzQwrFqrtOI0TT/cs+PRjWaJJqf5jpNqK0+BKe46py/85k1oFTUrVqEttFC3gB49k4KV371umQUqalKpRl1pwGsyxsDBSZBbkpVaHiZ5q80ofWdpzTFFZ8PnfVpo2XWrK1M1hcqbwLPj0XaVBSqp6XWrqNOqf+IQAmgV3lVLrQrVRpY88FhYAoqmVWi1VvQQ3qvSxpT0HexakGoSiWUAnwU2cRvMTnyBYsiBEanXQSXADp8EdCwswZ0Ep1SKhk2D3St/ZYYgxCz79aEKTUtXo0sSVqUulwqDJgrufMFKrparWJddKH3ssLED5AHOxs24DOqpORQv6WJhH7cts7lKrg1KCnSp9wLeFDUzlLAiLeyiodMnl+2DoY2GRqfAA89P31mkua3TJoWhBHwsL4LKgemfdFVV8pQ/9LpcO5WXakVotVYUuoYuWRg5TZkHzzroVqsurMlfsj4k6lfYLTG8bxT0MatEQ5zQOx8Ic0pT824kGKVGTYJTTuJX2Jc30/ud6XzSXFbqEqfQdS3s6zbufyxv90aRUZV1COI1jpZKmd78eN9Z7pamiCncap9I+Tee/fdAsIEVDaNHiRvO/dV80c4i6BHQabGmf3Zy/f673fHPKEHfnsMeUcMfCVIPW1/3SpFQFCQYVLQiHSXMN6ltqdRB0CeI0cIcppDYMmjmEaAhwGmDgpRrkTWp1WEiwvdIHOUyuQeHRXBZ0yVbpA0r7QmoD0CAVOF2yVPo2h8k1yLujmLCgaq70LaV9SFKrw0KCjU5jKu0zDfr16DUHwcDOzk2Hx/rSPkyp1aHaneuLFo3DFKl2w/f64SglWF/pK0t7Gvc2Ar85ZZS6tKZxGsVPfFKpDV2DVCh1SeM0cmkfVKrFoqCqdhqptPe7s24DuQQr4++RRNPvzroNZBKsOjxelPY07m1EJLU6UAmuO82c06BQUy0WmQTXnYaW9lFrkAqZLsmVfl7ah7azbgMrj3KlfzEMDVJhTShaLmdZqn02UKzxTA+eDxnef2B+xIgRI0aMGDFixIgRI1zwP7hSD3ruzVp8AAAAAElFTkSuQmCC;" vertex="1" parent="1">
          <mxGeometry x="105" y="510" width="30" height="27.81" as="geometry" />
        </mxCell>
        <mxCell id="lEaRyh61AleIMzdtigNR-8" value="" style="dashed=0;outlineConnect=0;html=1;align=center;labelPosition=center;verticalLabelPosition=bottom;verticalAlign=top;shape=mxgraph.webicons.java;gradientColor=#DFDEDE;aspect=fixed;" vertex="1" parent="1">
          <mxGeometry x="103" y="373" width="30" height="30" as="geometry" />
        </mxCell>
        <mxCell id="lEaRyh61AleIMzdtigNR-9" value="" style="image;aspect=fixed;perimeter=ellipsePerimeter;html=1;align=center;shadow=0;dashed=0;spacingTop=3;image=img/lib/active_directory/database.svg;" vertex="1" parent="1">
          <mxGeometry x="93" y="463" width="50" height="37" as="geometry" />
        </mxCell>
        <mxCell id="lEaRyh61AleIMzdtigNR-12" value="Defra Identity" style="rounded=1;whiteSpace=wrap;html=1;verticalAlign=top;" vertex="1" parent="1">
          <mxGeometry x="440" y="350" width="120" height="60" as="geometry" />
        </mxCell>
        <mxCell id="lEaRyh61AleIMzdtigNR-14" value="" style="image;aspect=fixed;html=1;points=[];align=center;fontSize=12;image=img/lib/azure2/identity/Azure_AD_B2C.svg;" vertex="1" parent="1">
          <mxGeometry x="485" y="373" width="30" height="27.83" as="geometry" />
        </mxCell>
        <mxCell id="lEaRyh61AleIMzdtigNR-23" value="Login" style="sketch=0;pointerEvents=1;shadow=0;dashed=0;html=1;strokeColor=none;labelPosition=center;verticalLabelPosition=bottom;verticalAlign=top;outlineConnect=0;align=center;shape=mxgraph.office.security.key_permissions;fillColor=#7FBA42;aspect=fixed;" vertex="1" parent="1">
          <mxGeometry x="350.0000000000001" y="260" width="15" height="31.91" as="geometry" />
        </mxCell>
        <mxCell id="lEaRyh61AleIMzdtigNR-24" value="Login" style="sketch=0;pointerEvents=1;shadow=0;dashed=0;html=1;strokeColor=none;labelPosition=center;verticalLabelPosition=bottom;verticalAlign=top;outlineConnect=0;align=center;shape=mxgraph.office.security.key_permissions;fillColor=#FF3333;aspect=fixed;" vertex="1" parent="1">
          <mxGeometry x="90.00000000000011" y="260" width="15" height="31.91" as="geometry" />
        </mxCell>
        <mxCell id="lEaRyh61AleIMzdtigNR-41" style="edgeStyle=orthogonalEdgeStyle;rounded=0;orthogonalLoop=1;jettySize=auto;html=1;exitX=0;exitY=0.5;exitDx=0;exitDy=0;" edge="1" parent="1" source="lEaRyh61AleIMzdtigNR-28" target="lEaRyh61AleIMzdtigNR-26">
          <mxGeometry relative="1" as="geometry">
            <Array as="points">
              <mxPoint x="160" y="920" />
            </Array>
          </mxGeometry>
        </mxCell>
        <mxCell id="lEaRyh61AleIMzdtigNR-26" value="Single Front Door" style="rounded=1;whiteSpace=wrap;html=1;verticalAlign=top;" vertex="1" parent="1">
          <mxGeometry x="92.5" y="1010" width="120" height="60" as="geometry" />
        </mxCell>
        <mxCell id="lEaRyh61AleIMzdtigNR-27" value="" style="image;aspect=fixed;html=1;points=[];align=center;fontSize=12;image=img/lib/azure2/compute/Kubernetes_Services.svg;" vertex="1" parent="1">
          <mxGeometry x="137.5" y="1034" width="30" height="26.47" as="geometry" />
        </mxCell>
        <mxCell id="lEaRyh61AleIMzdtigNR-28" value="Defra Identity" style="rounded=1;whiteSpace=wrap;html=1;verticalAlign=top;" vertex="1" parent="1">
          <mxGeometry x="220" y="890" width="120" height="60" as="geometry" />
        </mxCell>
        <mxCell id="lEaRyh61AleIMzdtigNR-29" value="" style="image;aspect=fixed;html=1;points=[];align=center;fontSize=12;image=img/lib/azure2/identity/Azure_AD_B2C.svg;" vertex="1" parent="1">
          <mxGeometry x="265" y="913" width="30" height="27.83" as="geometry" />
        </mxCell>
        <mxCell id="lEaRyh61AleIMzdtigNR-42" style="edgeStyle=orthogonalEdgeStyle;rounded=0;orthogonalLoop=1;jettySize=auto;html=1;exitX=1;exitY=0.5;exitDx=0;exitDy=0;" edge="1" parent="1" source="lEaRyh61AleIMzdtigNR-28" target="lEaRyh61AleIMzdtigNR-30">
          <mxGeometry relative="1" as="geometry" />
        </mxCell>
        <mxCell id="lEaRyh61AleIMzdtigNR-30" value="AHWP" style="rounded=1;whiteSpace=wrap;html=1;verticalAlign=top;" vertex="1" parent="1">
          <mxGeometry x="340" y="1010" width="120" height="60" as="geometry" />
        </mxCell>
        <mxCell id="lEaRyh61AleIMzdtigNR-31" value="" style="image;aspect=fixed;html=1;points=[];align=center;fontSize=12;image=img/lib/azure2/compute/Kubernetes_Services.svg;" vertex="1" parent="1">
          <mxGeometry x="385" y="1034" width="30" height="26.47" as="geometry" />
        </mxCell>
        <mxCell id="lEaRyh61AleIMzdtigNR-32" value="defra-id.gov.uk" style="text;html=1;align=center;verticalAlign=middle;whiteSpace=wrap;rounded=0;" vertex="1" parent="1">
          <mxGeometry x="235" y="950" width="90" height="30" as="geometry" />
        </mxCell>
        <mxCell id="lEaRyh61AleIMzdtigNR-33" value="vetvisits.service.gov.uk" style="text;html=1;align=center;verticalAlign=middle;whiteSpace=wrap;rounded=0;" vertex="1" parent="1">
          <mxGeometry x="330" y="1070" width="145" height="30" as="geometry" />
        </mxCell>
        <mxCell id="lEaRyh61AleIMzdtigNR-34" value="singlefrontdoor.service.gov.uk" style="text;html=1;align=center;verticalAlign=middle;whiteSpace=wrap;rounded=0;" vertex="1" parent="1">
          <mxGeometry x="80" y="1070" width="145" height="30" as="geometry" />
        </mxCell>
        <mxCell id="lEaRyh61AleIMzdtigNR-36" value="" style="shape=image;verticalLabelPosition=bottom;labelBackgroundColor=default;verticalAlign=top;aspect=fixed;imageAspect=0;image=data:image/png,iVBORw0KGgoAAAANSUhEUgAAAIQAAACECAYAAABRRIOnAAAAAXNSR0IArs4c6QAAAARnQU1BAACxjwv8YQUAAAAJcEhZcwAADsMAAA7DAcdvqGQAADMnSURBVHhe7X13jGXXed/3+ptedmdmO4tEkWKRRFKipchqkFUiWyIpRYkgOXZsyLCdPwLHQAwkcezASYAYBgInDgLDLbBjWAqMuNBQlyiKorjksiy5y93lFm6bnZ0+b+bN6zXf7/vOuffc+8q82TpLzW/me1859d7znXLvPfe9yMrKSnNsbIy2sQ0g0mQY+c2DeolqpSxVS2tULa4zX6d6Occ2pkqeqFakZr1G9UaNT0CDmkwN1knkOocxMYfOismUT1YkQrFohKKxKMVTQ5ToG6bUyB6KDeyh/sl7KN43amLeuri1HYIbrJy5SMW1aSqvzQpVC4vc6GUT4cYhkR6kkQPvppHb339LO8Yt5RDltRkqLZ2i0uo0lbLzTAsmZOtAHeNhdoyfvCUdY0s7RC03R4XFN6iwco4KS2dl6N8MEvGoDPHg8ZgZ7nnY53+RwVWOCkcYi8SiTA9h4FTVGyCuG39UakzVJhXKNaqy7CI5ME5T73hcppJbCVvOITAF5C4fpuLiKcqvbTwCoLH7kjFKJbnRTeNbJ7hRgJNkC1Vay1fZQXzHiMVTNPXAZ2jowCPGsvWxRRyiSbnpF2l99lXKzp40tlag16a54dPsAKA+OAEv8LYKcCrhFMvZijiJxcTbP07jb/uY0bY2bqpDYOW/+sZTlJs7RqX1JWMNoi8Vl4bvT8cpldDev9VR5lFica1MhRJfuRiM3/4TNPHOf2K0rYub5hBrZ39AK2efpUp+xVgUMe7x4gBwhFSUnSBmQm4t4LQurlVoNVcxFqKhybto4oHHKDE4aSxbDzfcIYqzr9DyGz+k/PJFY1EkueGH++NCW2kauFpk2CEWV/3LYFls8rqif+o+Y9lauKEOsfjKV2jlwstGU2AEGBlI0PBAXFb5b0as84JzgZ3CW1fwce66/1M0cueHVd9CuCEOUSms0sILf0r51Tlj0cu+HcMpdoZ420u8NxtKlTrNZ8q8vvDvfI7xumJyi60rrrtD5OZP0sKLfxa4Th/mEWF8KEnJG3hpuBWAc4CRIu8sNgcn3kqT7/gsrysmjOXm4ro6RHbudZp9/k+NpgvGiZEkrxMSxvLjCTiFu9jUdcWjvK6411huHq6bQ6zPvEqXX/xLo2HRGKU9O/p+7EaFTljOluV+hUUkGqXJ+z5Fo3d+yFhuDq6LQ+TnT9Cl5/7MaHovYf9En9G2YYG7mxgtGs5NrLHb38vris8Z7cbjmnfXZr1CSye+aTS9ith2hvbA1LlnR1pGT4vM+edo5uAfUTXf/kbd9cY1d4jF156g0tplkXElsWs8JfI22gM34PbyVDqQjhsLL8QXTtNlXnsVFk4Yy43DNZ0yshcP0ezhvzYa0dRYWu4xbGNjoBkwfeBZiEUkFqcpXleM3PEBY7n+uGYjRDW/SMsnv2M0YkdIvumcoUkNKhfWqZTLULMRfNx9tcC9GHSgnSP+iIpdXXNHnqDFI39jLNcf12yEmHvhz2nt8msi4zb0vp19sgfhzYJSbpWmjz5D1XJBGi+WSNHUWx+kkcn9Jsa1w3qxRguZUuCJ6dCuu2ni/scpMbDDWK4ProlDZM48SQvHvmE0ot08Jw71+XPirY5yPktnX/oOlUo1mlmIULkaoX27ojQyFKE99zxCwzv3mZjXDriziSmkVMFeT7WlhnbS5AOPXddNN1ftEKXlszR98E+oUde5b2woSRPOsHerAxtwzzz3DVrJ5On7h+JUKEVkRxVO2nseILrv7gG64+GPXZfb77VaXR6j41mIoklRXlfsvOcTNHbXR43t2uKq1xBLr3/DcwZsWtkxnBT5zYLl6VO8bsjRD1+KU7kSo2Q8Rol4nBKxGL1yIkLZ9QqtL8+Y2FcJ9E0hXp806xSPNmn3WJLGBmJik93htQrNH32CZg/9iUl0bXFVDrF07O8pv3TeaCTO0O2JZb1apsLaMh+b/4BnS4MbJzNzhs7MxHhkYEdgJ4AzJBNMzKMUo2OnmpSdnzYJrgYYcwxZxzA6bvdPjSYxnIs9wrbspVdp5unf5/Briyt2iPWZw7R85hmjwRlSgWvpMBbPH6eTzz5B5195kk4//3XKLl0yIVsXucyCLCJPn4+yo2O3VlScAs6A5zJR1s9dalAhX6BKKW9S9Q6ZrTEaoIPwVQtGAIwM9p0QuZLhMOgjfVHaM57khXpT7E1ecK4vnKa5Q/6zomuBK3KIejkbuMTE9rZuU8XypVN06eRr9O1nib7y9Rh9+5kqnXjxJSpmg7ulthryK7O0sh6lXBG7srEjG6SnDM6B0bDZiND0bJ2Ka5u4s2gcIcKXsSwYYl0cQkcA0U24jAzMB1O8mGWn6GeOOKC1iy/S7LP/i8OvDa7IIRaP/QOV1xdFxonawQvJTsC1+xKPDs+/FqXVbEJ6V2Y1Tj98sUmzZ3CZioPdmsivztMFXh6gJ8v8zb2yzr2zwbpy9Oomnb1QpUI2wyk6HQvb0ajS4Nr7QToCqCx6yO7pwjFSNHiEItrLTjHUx+4gYewUPH0sHb029yo27RDYC7k2/YrRdN3Ql+q877G4uswOwAuh5QSleO5NJ8ETVKnE6eUj67wgmzUxtxZqlRJVijmaXWKXFgdoUo0bqVavU7VWEw4bws5PF2l+qUT5tfCIpz2bW83nInMDs25HAnWIDiMDh4luwiFHme8eTdDEUFziwL584htUuHyY010dNuUQxaVTtHDcf3CFNQM2unRDnofSi3M6vMocbBZlMZ6Tj5/m6/qz5/hYcQK2Fgpc70Yzwo7MDc+Nbx2hUjXEsnUMvLTz7KFlyvMUqPO/NmSwp7dZGwhpOMI8XUjjS5iN48VX+9hAlNIJf02x8Or/46uQq3uNsWeHaFTyfFXxdT4O3e2DF2F28up3I1QKa7SyxlcecvGhVyCymILI7NDLWVpb2HoLzHIuQ2t4L5gbW8l3iqpw1RGG6ePUmVUqlZtULhY5NRzc6fHceHzQqrPsjQBCGm57ukuSBufKxLNp1I48G7RjEAt5Lae0NkOZ40+wfOXo2SEWXvtbKqz619u4+dTLFnkMu9k8D7l84nAiy1W83WSH3AadOJ2jF148T6X85l7Tu95AvauViNSxyp0ADoBRQQjHILLvIJg6sjnm3ItlXYBea0cE03joyQE9TEjjjAwaB/npyGDTuLyf++T4IJoRepNWTn6PKqvBHe2bQU8OsXLqu7xueNVoRJOjaRrs8dY05uJcwZ974QxlnETpYWznA/3Bj+apkFtjP4enbw3ghO/YkaBEIspt2/RGBXUCQ7AxYcTDZejOiRGKRNFJtMfqGsD0aui2l4s9PDJouMiwIY7YHS525KHxYIe8gx0ijZ1oHF6vFijz+rfYfmXY0CHwTH7xxLeNpremRwd7fYrJiy7uXdhpjB6F0aFUAVV0pKhVxUmyWWxRj1KdT/JWQXpwjFLJGH3g4QHWcJWhVxbi2EzgDfRaBma/Rx+7j/oH++WEaq/WXiy93c79QnAgkBtuwjyb2gMjA8v2SkPyhi6kjjU+wLVAGBPuETUqOanbZrGhQywex0MreCLJqLC55xS4bo9RMtnUIVZGB50yyrIww0lt0h2388nvS1+X5wFXipHdt1MsnqB33jdEX3psN91/9xDt4Ms9F7glcf+9k/TLv/xeeuih22TRnGQn0t6tDeWPAA5JT9cerj3d9HixmxHAhEOWhjbhnhyiwTTxJb2ev1ppjbLn/JuGmwGXKyW3xfrFQ3TZbHjBemHvFTzSPn/4e3Tw5TU6eLhgLEEcODBCX/rSu2l4ZJAGBgfZshWcgk8J/5cLWXmWUatVKBJLyIOlKPP5pQpPdVHatWeUBgcHKBpPUpydIc2X3zJC8B8a2D+1yA+y0a3shgtrY2+XLqCLIJ8LazVazeuif3D3vbTvo78p8mbQ1SEuH/wjuT0KYN3Q+1ThI7cySwvnXqOZhTqdm65SJlunBPeiPbuH6PY7djBNUTyZpv6BQe8u4M1D6EQzxxBdzK3Kc5gaj2o8jPHU0aR4IsX1ZkeAM3DPxFcRBBpMsgjJgQZUh4H7K4cbhXQ3fifZ4flSnWZW9EFjLNlPd/1TPADbXAfr6BCFhddp+qDeJ8cl5m1TPD9e4ZCeX1ukzMwbXG2eQvhESo9K9VPfwDAl+wcpkUhwyJXlffXwT7DfMDiNbRrMO1XgfjrllsCMHIgPFrL3lA66yvjz66OWQP3479xCldc3mv62T/w29U1u7l2Pjg4x++L/oezMEZFx88nd2nVl4EUZrx8avBjDSjzOTrBZ773msA0gBGZke0o2CrdhonJzsN1vKEcXrroipAu3BBa2A23CA7rSAo/Aq3lebDKmHvoijd33mMi9ou0YXV69RNnLR0XGQg+v3l09IrxIS1IixeuQBBZnN8EZcOKEsFDTVbvIWMmb1T90WcmHectVAJOs9iGb1b/YsfJ3rg5CeVoK60ImjUdYUNpFJZNfRifepIGUPb4GlZbPyGFvBm0dIjt9iDOEx+HdATz7v9lz+9VCe48SThZOmmtTkpU9E3ov4gXuG0DnkwwZ4b3fN7B5qd02sNiFtAyPTD6e7Og2jVdGG929O1TKXDBS72hp6Ua1QGuXdKoAhtghbk1gSNaTryOA25NMrxW7GRlMuPR208OVNFzDbLgJM3lYe2BkYLnTfQMJNwTZjlRW78ZbKVi3aETjgsqZS9Sslcz56A0tDlHkxWQdX+7JwMMrvEhyyyHUc5TQK3GijJ3l7iMACHE0XOOoXeKCS1zkoekQDlkaxISrbPQAmTwcsno33o0QRwdzlUGF+WMw9IwWhygsv2EkvJO58bOKrQE+eHvypbeZHofeKD0Vdu1Fnt3q6L3W7hJ6e8CG3u2MAEyBEUB0lYVvSLa+Ptk8uvFW0pEQhDhcAR4lzPnwHKN3tI4Qy/4eSXzj29aGOWB78HJSjMxke421i85yy8gA3YTLqCBxNNyTkdZyY/fzgB15qE1IZKMjjonXjQJldOCt1Fo//UYm1TeLQIvXCstUNN8Oi6sLfP/j1gMfJE42kx0BtHcoL6wt0sqlN2jx/DEqrq9IHO1B6N0aR2wiO7oN9+Ibm4Sr3VsLGLuODMGRQ0YnI0ucdlzyQh42f0MmjuomTHTNPxjeqvOH6FHrnEKbc4qAQ5RW/NEB08VWerYgCPU0r1fwgWM399mXvkfnX/0hzZ09QosXT9G5V56Wu6RUx5eca3ztUdqrkJfX021erj1QHuJpXLU7uiUvrlIgT4+bso3ejTrn4XMlP0+QP0IwGv631fSCgEOUs/rWNoDvhLzpsA0ijaM9U2T0BtPDoGfmztP5V5+mYi5Lc0tEx3gZ9AZ2xrNDr8xeoIsnX+K4fk+yPQtphTs9XPPU3gk9UKZnMyT1cHQ4iBMeKMPj/tUPeGfS44bcjSs5V1RMcbnS0PQVp017Qcgh/C8Fu7kOAe+25B900M69hG0L54/T7OlXaH4lQk/8IE7ffyFOR07F6dBrcfr2s7pjupjN0PryHPciM99yOp37g70VZfhrAuVCKN+Ee3I7knBfl7yYvDLa6EKQYWM5u7pKq8vLVK1iK5wTtwO35OqJmC9X1/027QVBh8jpTmrgxn9hKB+ANDyT6Xk6Pzu9QuxmZGB59o0jtDR9mkeDCP3gUJwqFX2ZJs6ER9Era1F68nn0ngjl1pYkH39uNnkjT2P3RgaxI1zjINwbKRzZq1cX3kq2/CBhp9XFs+fo7JlLdOz1BebnKZfNcjZOnm59ja718+sNSkT1XGKUqebnzfntDQGHqOSxlVxx40YIVN6Q8Wol7r3GJt7PBygreehsX758lqeKC3TyfIxePJ6gmLxVZV6zMxyOgTeuFlcjVC0VOKntSX7ekJG3yLCJbPQNKNxbfW7quQG5abKZDM3MFeiJp+L03efi9PWno3TuQkY2ECG8OwGG8yUnH76KTFWnk/eCmzQvcOXtyRcyvU88HLLbA9n7pRf4vQKPoxcvvE7TsxE6fCJKMV4rYESI46EZr6h0lNDvxUbYEvt5o27yMnlo3ioL35Dc+irZPFq5xoXeSsH7BpavrGTo5eOod4LSiQSVy3F66rkGLa3kJLwz2XoxF+fmKSOqHHlX169ihLj+QKVxALby9kBCBBuT9B7hHI9l9OpGo0qzZ16lNT5PPzrMB2DepsKeRnEGGSF4dGDniDEhrFKNUoSdxOYh3JaPMqQcyEY35Yvs6U5cQ+Fe3o63klnHMNk42Iq3nitTJqvvjPalkuIU+QJeVahQqdJadjeydysxQtTL6/I4olfcAIfgSkrDc29Ab+QRQFfytneYEQB2IbXLXCtxNZ3KdXaGo1QoFHhYxa5tU4SBe5kM0dF0843kzWWbcvhDyrejhO2tQa51UN2tj4b7ugkTXfMPhru6Xz70arlEKzytoTnZKJ8WLx8p0twKN2w9eHUS5HqO8W6G5M+EJSC7GlOTKqu9v+bQ0SHcr8q7MlhHQD5KXq8wPdDjdgQQwvyuc7ynm16VW56n3OoSTxMNysoeUr/JAWRnoSUpEnx28Oidj4rJhjCZ8q3u1a8L70bIX7nVN+YgvAhUKGN3N7b8N8wG5JrsSM/ma/T335qjbGOI0wBIq/A58lEOGzheClaZqJbr/dIz4BCJvhEjcSZX4hD2BIsjOITeYHo4dPXskO72IEuwGXu9XqWFS6dpLd+kV05U5T0IvFtpueyI5jLwJRtYiNld0SBspceGWa0Hym5PKKeVB3tmZ9Jjh9w5L8v9eCBsGipVdCMynKFYxjSBzcjYlV6n89PrdHa6SrVIOpC2hbNDQkZdcC/Crlc2cy8i4BDx9LCR2CHMNqzegLiW7IE6ugnzRwSHWzt6F6drNzLAlrl8gep8wp4/gp9X5APFHycTh2AdDiEvA8EpmIvOhPB4ktcSMTy11fI6UaB+HXS/fmFdj9OL2yNX4nMfj3gOIa8rCNfXBdGw1XqUmjHsWkNaIMx1NFDCvQjl0GubuBfRcYSoON/a3h6+p2rPMz2eZc9jxQ7dt8s8LHE13K4NNMwJt/FN3GxmQbbeXZjV0QGNX+cw+96ljAzyhpUlY2eqN/i0cFrkwxm24f5I1Upu3bqTuzZRnbmnm3MguuYJHYTF8MRYTOqM0cESHANOfWD/CL393r0UreU5nZ73Vh6kmIwQSuX13l+oDo4Q7pTRcYRgO1cCJF4OGRzeaGS1aw/37d1HAD+Om4dyfGURnADveOAmEyBOYUcGJn0z25DI/kixts6NEYlpnjbvDrwbtU9jjtHolsJ6kACfJ5Nx2rs7TT/9kRHaPZlkx2crH9/ISJIe/fTd9OVfeh/1NRYp1ihKvp0IealMZJ9LygiR6/3nLPn8SwsIVs88RfPHviYyvnZ31zjPWYAXRQu1OpLairg6goXznzyaB8enzUe4JTAj23AbZnT0qvMnj4r1a9/P0pkLugsIB4sbUrj0xNvkuMqwFxpIatcYb71zmB779O00yScYwVofxDH1YjlQP7GAgTu2tuEiKIlqZBEN76Q7dowOi6s1akRTsjM9lkxTgqkv3qBkY42doWCS27QMGPRAVHfyq3AfuLCsaizZR2/7Bf+t/W7oOEKg92kBljDUgXyb7R1iY8JJVd46Mtjw1pHB1yUNuNiNDpkPun9oWNYBH3hkxNungRgyQsioYKcIMzrIdKJhcVlU8vxr85SULjf13YDap3W5OR+OvTfSVx327EzS7rEmTfRXaEcyR+ORWeqrzYkzAMgT7a+8lZCXleX2tZHrlQLVC8Y7NkDQIWRRyRnxicNJlflO5nB/DRC8b8A2Y/fmfshi13Qt4Va34V585Kl2d47Vsus0OraTHSNG42Np+meP7qZ0yjgF1xVOIS/f8tpBXhkUGWsKfcN8//5RivBVhrcKN+WEyxe5rc7xWOcP0bWeVjfnxuhCRpe4EifMcY4Rh0clEw82cOxliEeqFGuWOczUrxt56f0ydOTjkQX3Iowdv4jcC0IjxCgnhgSH0J4L2e2tXIJvF+J4XKD0ZKsLuXE13KZRu3IhyCaeyGJ3dKZUOkWTU7vkJZ+pyQH68s++he6/xx/RAInJaS0Bk5OD9OCD+/jSM8kHa+toyu+BWwrr3YnBcyV6M3TlOror1zjgegNN8w+Tpm3Vbdogd6G2ZAznT1FdPWek7uB2MmeO0WzU6NQTv8ECTDz37hkQj+HTKwUjKgoWnaOgxwlsFiadEpiRbbgnG92NL6aQ3U0nrMmr7zKtZnkIxcqLaXGpTK8cXaZLl/M0v+Dfoh0eStGdbxmnj3/ibhocSFMqUqYUz8UCtw4dyjGCkqhGFtHwTrrhgfPVTuc/gbBwHowey2kbjwtYzhGtFFAS0ejdn6TdH/kPIndDwCGAM1/7dzLnAHdO2Zd7OYpEcwr0bEBIN+G+49gTgpHD6MaOz3A6JTDDAzqnYlYs16hQRQ68mOSrD9DySony+RoNj/TTzokhtmGhGeUYdeqvL1IE05HAz0ccnf+8eoFzgNUlbkCHYHgnvcUOsCxqyCbM2oLc1iOst9bXHgfAnxA4IFcmmsW397BhYOo+OvD4H0uMbghMGUA8OSjzEuZBzMPe3M+NKfOVO/cKmXA7lznh/hpA7fwRsmsY7Fg3KFndxPW4yROEBk5FaMdARL6NLR6Py1QyOTVKd751iiamRmQBiquOOF+q9dX4sotHP6R36+7mKVzqaXVTN083stE9m3A0QnuuZGWXdyEuA1zzAGka/nA4l4E1CLiJA44w5bgXAVnj4ItEekGLQyT6cc+cM+LpADd92q0NxIZCoaMCEq6Fa1qNA66EuBoulbW6G9aGvLy68HSUF5yJAo3G1mkwkqN+ylG6yby+RAM1XqXXl7kutY55dCdbNyDMpRMarrZ2vBshL+Xt0iqUI55yhaZtJQOTGGsmyFAbVXz31cZocYhYgkcIaThdWHoea7zWJelR4KJrD/ft6GGml5k47QlltZPdvDXM1zUedEvEjR5rlnhEyFGinqUobuKYUSGYl58WvDPpOVAyuufYGieQN4e1lqF1DnD8ia55Kw+mCeYV5Eoalz9UBreyQ3jAK2nx1+MbXK0jRN8we5QWJiMEy+GRweqII3HFbnTLTbgQbHIAzkGYeN10r4ywbvKROnUhG6cbvzICkEc7jh6pccBhC3KfNE07HsxDuQu1KbcyA1MESGTu3NhsqyI7xJWOEKkRPvfqkdUq93g7MjhrAzti2HsR7shQLKzT0sx5WpmfoYpsW9ORgyNqnBZu0opu8m9LCDPhpnwvTHQnrVcv1WXE8nQdtawuBBk2o7dyPsngbe4beFzmcxvWhbz0bhma1uewmzI9buKaDgjSsDYcTuLZVKyWr9Qh0ri2Z0/lXHBzyhsBnEIQLhUTbu0NWpq9SOeOH6bF2WlamLlA504epZUFPFjReC09Pay3JTM6Mdk4m+G9EYA0Lvd7pealvNt9A5cqlRrNzmfp1NkleuN8hmYXctzB7Mjq563w6+BzlxT2trwklnoolKNchZahzmDr6z647IYWh4j3j3q9RR4zo/c4vdjr8WK3ekO+VhBOcJHb/++ejNJXvxmh519t0uzMHOXW+Pqf4/jeb7g4VdDeSjgwlfnDcKu7nI++jb2VNJ5yQ8a5NU2XMkxd/bJs3ZhLeqVcvkznLixTFtd9jDpshRpdnMtTrlgN5Nme3Lr5spbr6AiTT04Dbu2Gs/+JjL94/xiqsiHarCGQUL0cj5Stt9m1gZCVTcE4octzl2luOUrPvprgy9UEz18JujATp289QzQ3N8vrkTYrfZPe1YVMnLCOkyVpPF3DPb0N3wz5aYEw156ohHjKRed5W2VuGl6IX55bh5EWMhH62g+j9JWvReg7B4lmF5s0n6lRsaJxFZa70HpI5oBZG1jVhnvBlktljM4f3Hwig+LSrhujdYTAj3zxSYYHy/MMeKyMGBgVgiOD2Fiu1yqUW12h107zdb/Z9Wy3wheLUXr5tRqtLON7oLVnbI78tQHK6sy1fv5agTlkr75uXD6hHTjiKFnZtXUgnB8Qy6vrBXl+cu4S0XcPRmk9h9/ViNFyJkpPPkd04g38IDzu8fDJ5vicSLmMPpBRXhfOjuDyIJn6mDDselMbX3HIUmBjtDgE/CmewtcDaiUwSqCyogv5snp5k0r5HJUrJLuG8S4EnAHfeI8vOYdznOKTMD2TpwpHsj0pSO5VS3duKawHCWjl0nOEq60d1x6lccJk09o4gMfN6h4/uVSrR+jQMT127Rj6oyvoIK8cI55Wm7SQ8/d2SIaW8YfPbZkKLYN1Y9C62Pq0EqYMGzfe39uv+bVxCE6cHuJyuXD2Lni7erIltYPgfeClYoEy6/o9cvjEDmfcJcS7EnaPwqHDiFPkDmu8OEDqyW6ePtfyrG4prLPBIaNb5zW6pjFceiT0YFmQA1ziQde83TCbxvZuvH1VLvNaYVbOgrwagFcB0EmU1PajF6t8LrgDFZOSpyX8SZ7CtSwWgtzawcN/1mbiFHgJI3HZNrD3J5hvjLYOIStSrhgyqtb0JAqxLmR068HVSoXyRavhxGiF4ExaQaLL81U6fHSdVgu6LmlHSN3KtR5WtxTWeyHtLJ04nFnl9tzm4ZPVAfAK3p9g719a1Z9fss6g74qoDFuzEeUOUqZCLUWFuvl2Py7Iz0the7fHzYcXHib+sHKdRx/2TZGjiT4avOODLG2M9g4xOMnHqo5g71ZqbwD3rzi0p/Bag9cQ+ZJuVsG6A/sS5KuLZZMoNqvoSPPUjxbpjYtFyldxUvy1Qff7BtD9cCETLmE2ToDziQX37hvAKTXck5351Q9rQ6YckOQppGn4Q7kpA8cOZHM6WgJoJHy/J0ZK5WqfvlylHz6fpWxtmCqNhMmrG9lyjeyMXBrm6ByWK6N+ki0N7O9tdADaOkRyaEoFzg03p7zegNyZXB0yVtaVqo4IcCD95njd7IqThDuemCoQ9vQzs1SJ8BoFj69N75e8DO+NAKRxufYG5RoHHLYg90nTtupAK3ehtiDHyMhrIW7xSi0Y28LGBhDj+Kk8vXSEnSKyi+qU1B4O4ph65aLxRDeJAlzFALfAj82KkWlg77vV2APajxBDu7j2aCxtROkFxithc3XrrVjRWifA+wT2ZROQ3b0E55hbyMuPnFfNOwZSDvIwvD0hnkNSD+0Z0L36hDnqJ3W0vcjh/MeCsSlZXfMwXOJB1zzbks2LzwGAaRZ7OeEg8mqA0zHQaWC30+rTBxfpyOvrlI3fxjVNiE3+wF2Z/1gQ2eMa6nNrY1aosCeYuIMH/hGq1RPaOkRqZC9/auZoaO0lzE0Brg7CTximkhFudH1kbrewBZ0BJ45oYmJQHlXrlj/NR/IyvJWAdnanHvzZyr0OwqQ2j0vv8/OwFMyTuRdP0yosd2HSRDEl8CllVZyBncXuBrfnQByCj9tuAMYp+Pq3zlOxGqdS+gCXg7IM8YfLAcjClTHX+ohurkKyPH1j6Qd5+I73U3L0AJSe0NYh4gMT+mIL1xa3W7VXueTM/0xxvrycGI/LSZBRwYwQWEeAo3fAo2PxCH3yk3dz5fnqo5Hn/P37GshHZKN7tracD9xw2JSs7No6EJdh1ySunT+CHL3Yi6dlIky4GXk0rnJtFJCOhvYtMpdgkzDO13+3pEknXl+mWmIn1WN9kl/wOEwZUqapHxzBhIluOCjPo4PGb9LQW34KteoZbR0CSA7s5E+MEDq8wRPDhHDwVDpNdx5I0R379PckEKLeD0mxZ88Q/eovv4/uuHOSkvUVHiEqbNU8fAJ8rr3ActMLhGscrYflraRpXe6kld7k5gWoHOASAN3aGKYiwsxcjw88bpbL7ZhZYIPs6MBdtmp0f6TQcwuwSTphM6E3kFpHAgeuEgggHmkilC+rMT12gEbu+YzIvYJHfKfVHMwf/J+UOf2UyJMjMRrp40KM1ymYm6Tw2pnLS9wDiE6fr9BqjhdX0bhuYeODvFN+BmGCEviJxlqGEvVVSWfTB/IUZvLlPxwaqijc6o7dB8tQ0dCe2QgblNOqA44MuxZsoIJfHw0u4ucJlhv09WfKdGlOp1K8M2KvORAfdfZePWSy+NVffR/t3beDkrnXKV6yb1qZAm0BgfoBrfpCLk5r5sHm5MM/Rzvf969V6REdHSJ/6QWafvJ3RcYPfe0blz3drNnoenB6QviPDw4Pc/DSap10S1s0npDflUglmpSM1mTziqxDbB5e0SEetoN5DW3DGC3xmDsnDvVSNeRITBgZNDqsvq6wgmcwMLomYB4Mr9aadHGhTgePVOjl41W5zGx1CB49ZXTw0z780F56/LPv5Dyj1J95jocLvKGl8f36ojiWrEE/AihUozSz6g/6b/3CX1Fy5z1G6w0dpwxcqsgr9Nz7C+z55Yrdk8jU5r4B6jkymKSpcbxsgv2OdRpPlWg8vkIDjRVK1LIcT5996DzYhps5Gwcu5XjchIVt7UjSK0mewjWNx00ZGu5zCeN5mgUTd2PukryCzyfi9r089LOOEcAuru0CG+sH1xnufttO+pmfuU+cIV64yKtB7CFx642yjA4nkLSQoUK2tiatyjdSqzx+/+c27QxAR4fAkQ3sfRcLWkAeNzq4IjrnwnOVtyOEJaI8TvCooDZAvb0zh/Or3J63kqbV/Fu5C78OPndJYedtSczkqxrP081qXqJJPJbNWiLNV1t7JlP08P19iNoRoyNp+pmffht98YvvojhPpfHKMiULZ9xCu8AECuMP/s+WopTHvQdGangX7Xz3l0XeLDpOGcDqyW/S3ME/ZKlJ6QTR/nH4D0f3khge0BGumi8oR1GoMvu98rDOfwJmOMkmlfz3tDaArhmr3imehRffqPwH1cKtl802oDMpfKnIa+X5tYR8hdH8UoNO8ZpqLccjBNbQPArsmuqnO+8cpbveOkExvMOZSFKiukSp3AktQODnp4DOJbr1dSqABenMWpzK8oJ2hHa9/9do/MGf18BNoqtDVHPzdPZvfoVHLNySbdKu4SgNs+O7DSkIH0jLgYXtAMuihuIA7fKTAoP2dg5lo7U4lMAKnsHA6C3xLEK6Vx9Vw+Hr3FtXi3z5yItq/Ggbrh6wnpIfcmMejSXFGZKUp1RlmqIVnk4Dx9cJCLcF+xXAk9O1InSiwb0P0oHH/0zkK0FXhwAufee3KHfpZZGTPEfuG8NDG5PES6rcb5A2DcQ9XKPbNIxQeo+H7RvGA1gWNWQTxpwrYhhbbf1COsIlnl//IEJ6oHzA1/GdFPlqkuqRFDUj6gy46sI34yUiZUo2dGd4AH4FbMU2AK8b2PkWczrzR+Mpuv0zf0DpPY+IfiXY0CFKSydp+pu/qS96cNTRgQhNYLsEEEhqZeae2bEJ6677DeM3iOo4P9o8Ptd4CsM1onIDxClV6lTiNRB+Oa+vP0by85aheIqQvkF4oH4s+PU22Yfia0RwVR2hA8LpmZwCChW+qlgz0zgb9n/gX9HQO3+B5SvHhg4BrBz5Ki28+Bdcrkbdy1cRuBT1Kmzs/gkKNahj98GyqCGbMGsL8bC9JZ6F6qvZKi1mynrzx1sxEu3emaThAb0S8DqkcFtfOd/MQ/l65Vl00L0MeolvSzQsWIEQfEOuEqHZrPlWEMbU/Z+mHR/+T0a7cvTkEMDMt/89rU+/JHKanWE/O4V/IDYLqzNdxX2DsO47FKJrMwmXaBpXoTJut19eLNN6vk6nLkZpdglfXhrhy+ImffDhJg0NRujOPbygs1OfhVcfVYN5A0YH43jtHCige/mZdBtig3gmY6wXsG6w8Yf2PEj7P/u/Rb5a9OwQpcXXeer4t1QvF7gaTR4hIrR7BHfjTATvYJh7OTo2YRvont37UA6xjYNJg3D5yEbOO/9haphZKNH8Cr7YNM7X/lEOUzfCs4NUqkmPf5Ro13iMhvpt5U2eYJKRX4aig+6ZN4gvFQxU1OcBdAzwsFKI0jKTgKP1738v3f4YrgSvDTrfhwghPXEP7XjH51nSXoCdw9N80mt8AYLTDVuQ46A6cY3Tjius3Ikr7CwgjD8KRXaGxYqMCt8/lGAH0G+GTSXAEyJXeN5dXovguZWkcwkfHhfB6A4PAMauEQzCFXXTuLIXBm4DfKwUY74zMAbe8rFr6gxAzw4BjL/zizTx4Be4WfQmVYV73LnlBpW8J6IYxg03d/yCd9ws1zjC0ciO3pYkjiFH9vLksvLFGs2uVOiF4w167ghOqfn+61iMkomEbGHDfkbcSq41ILMLSlrNB3+BPME11OfGJtwlN8wjMCN73NiM6skSZowB7gNrhuWccRIOGrrjw3Tbp35P9WuITTkEsOPhX6Rdj/yiyKgeejZGCtyQgWxtWnVX1wNtzzWOIswBjcuRFJg+mKya45FhbqVBTz5fp6MnMY2xOzCBwykAf8MvryWGE4QfG2RR8rAcgCxcPt364cPUA6IYfD0INxP+cLlL1iZcBJVDwN7IpTyvGUxQ/+Q9tPfj/0WVa4xNOwQw9o4v0v6P/UfuvP6ocCnToGxJZSEOQ+/2dCar84fPvXh8Yo1NOJ/oQG/twPFAaWGtScfO1uj18+Ybbnk+AJcNKjyK4WGSPENgjkfTYyMJvgR162by5JHGqxca2todLuTUTWBsXrhHJszjIbJpPA4YXUQtZ4kXkPK1oWyOxtM0+f5fo2hiQONcY1yRQwADt/0k3fWFv2Sn1QMAn+OGsY9ewz0/6PfmgAPcygwTWdI6I4FflgI3u/C2XDSaoONn9BtfQeoUugEFjmB3cOFh08SOmFwlmYHDyduBqwQCQvCGE3AmwzwCArxdQDuYMGZL+TgV7B5NZpM/8SvUv++9ql8HXLFDAPHhPXTPL32f4qkhdXD+WMg2aTnPDYPGM71PuY4EATINbBIrlzCVNQ/D8Wniubze0D0XFR4pAN1noE8VsTHF7uDSJ451mpzi6SLh5MF/XhmwuWRt4B4BRg7HMcwjsRklkA9gOWDkUNzVIm6BsxcY89jdn6LxB/8FYl43XJVDWNz18/9A6XHs29ORYoUdYkm+rd6dg5Xr0VmYIzUdQNcGVg6Iyo3gcaZkMsrTQILuvUtvn8IhdJeSPnrGtjUdIXT72uBgUr6dLZA3f3j1E4OpVwvcVJJIETJ7hI9wpdvCxjEf/J/nq6FFu25gGtj9AE19+DcR4brimjgEcMfn/4IG9ryLnVt7eIadYh4vfZvRAD1SZJxo9ADRN+Y++XO9yqr3x6s8r8bpPe8ao10T+tKLjA7iCLqvU/d41nhxVqXh4T4+v5oHf0getn4siE04ELZJ3DCZeO3IS+vE6ZqfxqvwInJ+nZ3B2OPpMZr64G/wuqEfOV1XXDOHAA58+n/Q6N0fNxpR1vsWNIXXScTru68NrI40CFceJHxgcTjWV6JUXx99/rHbaXxMncJuTlHH0A2uaPSpPaN8xcHOIBloOa2QQL8Qowp3CR8eF6E7JI6bRplHjCbHuZxN8IJYdQTs+sCvU3ryAaNfX1xThwB2f+S3aOLBL7LER8QNkOPL0ZlVPlqWtTeCTO80DWJ7pw33uLF5PGSTOEx9kRyNxjPc+1P05Z97O73noSmvfWSBaehDH7yNp4x+ijV55cu6DyOLTfNVbmxG9WXD8RFIE0IgzOUmzKiezB/TmShPd9DFQJOPfJmG7/60yDcCPd+63iyWXvhjWnzJ3l/nRktEaN8Irp1UDyKko0poUM/cPr5E49HERq9TjIrJA1SNj9HiYpGeOzRDmUyJBodSdN+9k3Tf/XsoWbpAycI5Sd8K5GsLDlRA0RIcCu+I3vK7tMr1r3EflXwjNPGOz9LEh36L5RuH6+YQwMrhP6f55/6Qj1eHf/zy44Fx3Yan5yFcdEhvqVoHHUwyVL0eH6Jqei/VkxM8BibYaRBIFCvNUSp3jIcNM2WEs2vBhhEUKBdlCIfO1Db/jgF0cTXOaxyEKSbu+ShNfOy/Ge3G4bo6BJA5+lWae+b3jcZOwWulPTxSyO85bNDg1pH8820dyZ7WUHq3QQQcIz5AjQh+FqFB0ar5amMP4fRMwQIMWgwdsEE8N1g43nshXjMEnWHswMO0+9Er3/V0NbjuDgGsnfg7uvz9/8rnQRsUN4V2D9WpLxkquqUqHXQwc0KDaKfbFjDMqo7ZR4uhA0wGrgN2zK9tgKBSj9AcX024zjC46wE68Pm/NNqNxw1xCCB39ns0/6P/TpXcvJwf9PjJwToNp93ijQzG4e1GBF9nzQsw6TbEBvHc/OwU0BVeAtFa4AaH6in3GXK8gMTPPxmMvP1R2vtTv2O0m4Mb5hBAeekUzT39u5SfPWIsPDz2N2lHf13Ovw9TJa9m4SqGdLcBAw2AQBcdA9pjw/wsNpev7oPEnOlj8iO/Qzvvf9RoNw831CGARrVE80/9Dq2e/o53vtOJJk0MNigVt1UJVclrmI2qivA2DeOaAzwUryPchA7a5tcmngM8tcwU/at9fPXCFDvD8G29f6nH9cQNdwiLxef+gC9L/9xouq7Y0d+g0T69R+GjXfXMiUe8QIMwBdAxoD02zM9ik/kysJ9htciXleZlGmBw3yPsDL9NqdF9xnLzcdMcAsie+Fua5SuQeiVvTm+T1xQN2smOEZc7txtVbYOGcYOFbxDfQ4d4rtnmt8FaAwtHPKRa42nCxc6HfpYm3/9vjLZ1cFMdAshfep7mn/49Kq2cY02rgs0rGCmGU9ifZ054m/ZpRa+HgnihfNvm3zFgQ1TZEdbL+rQSXwBm0bfzbTT53n9JA3d8xFi2Fm66QwDV9Vmae+o/0/qFg8ai6OfL0hEeMQZTtoqhqrrtFWi3FkMHbBDPDRa+UX7Y3aSOkGWq8+znYscDn6ed7/91it2Ah1RXii3hEBarR/8vLb/6V1RevWgsigFedI7wNAIeRK9VNy16nUaEAq8LSrUoFXmdADmMvh1voR3v+SUavusfG8vWxZZyCKBRWaflF/6IVo7+NdVr+uXhFgM8YgzwaIHfpMQVifwcmLQfH8I1vm+Azl3jGQtDP74RFnKjGZU7i+j5DZ4G8AwqPAq4gCOM3vc4jb3znxvL1seWcwiL0vwRyrBTrJ3+NjXqQcewSLJHYLNLKsFXKRF2EG5JXK3gt6ZizPETQ+BoPH3iGRGfwbfTN7lx1YZw+AA3fI0doIEvT8PObFPIJoGvYurf+xAN7H8vjdz7OWO9dbBlHcKisnyaMsf+mlZPfYvqpfCziE0CR2oHCDuydBsxekAs2S+7oNOT91Pf7nfRwO0fInyd0q2KLe8QFrX1y5R947tUmj0so0cpt9ymgR0eQMeAzojwsJMep+TgBKWGp5jvosTwLkoO7aX44E6Kpccomh6lWAq/hvzmwS3jEGHUlo5TfvoglTIX2TmWqFnOUL24Qo1ihpqNKh9ZnBpMmEjkexmiMe7OCZ5C4vKzz/jeBvTkWD837sAkxQemmO8SHh/aLV/vnEiwU/yY4ZZ1iG1cHwRvn23jxx7bDrGNALYdYhsBbDvENgLYdohtBLDtENsIYNshthHAtkNsI4Bth9hGANsOsQ0HRP8fjeom1jWeBVwAAAAASUVORK5CYII=;" vertex="1" parent="1">
          <mxGeometry x="263" y="980" width="32" height="32" as="geometry" />
        </mxCell>
        <mxCell id="lEaRyh61AleIMzdtigNR-38" value="" style="shape=image;verticalLabelPosition=bottom;labelBackgroundColor=default;verticalAlign=top;aspect=fixed;imageAspect=0;image=data:image/png,iVBORw0KGgoAAAANSUhEUgAAAIQAAACECAYAAABRRIOnAAAAAXNSR0IArs4c6QAAAARnQU1BAACxjwv8YQUAAAAJcEhZcwAADsMAAA7DAcdvqGQAADMnSURBVHhe7X13jGXXed/3+ptedmdmO4tEkWKRRFKipchqkFUiWyIpRYkgOXZsyLCdPwLHQAwkcezASYAYBgInDgLDLbBjWAqMuNBQlyiKorjksiy5y93lFm6bnZ0+b+bN6zXf7/vOuffc+8q82TpLzW/me1859d7znXLvPfe9yMrKSnNsbIy2sQ0g0mQY+c2DeolqpSxVS2tULa4zX6d6Occ2pkqeqFakZr1G9UaNT0CDmkwN1knkOocxMYfOismUT1YkQrFohKKxKMVTQ5ToG6bUyB6KDeyh/sl7KN43amLeuri1HYIbrJy5SMW1aSqvzQpVC4vc6GUT4cYhkR6kkQPvppHb339LO8Yt5RDltRkqLZ2i0uo0lbLzTAsmZOtAHeNhdoyfvCUdY0s7RC03R4XFN6iwco4KS2dl6N8MEvGoDPHg8ZgZ7nnY53+RwVWOCkcYi8SiTA9h4FTVGyCuG39UakzVJhXKNaqy7CI5ME5T73hcppJbCVvOITAF5C4fpuLiKcqvbTwCoLH7kjFKJbnRTeNbJ7hRgJNkC1Vay1fZQXzHiMVTNPXAZ2jowCPGsvWxRRyiSbnpF2l99lXKzp40tlag16a54dPsAKA+OAEv8LYKcCrhFMvZijiJxcTbP07jb/uY0bY2bqpDYOW/+sZTlJs7RqX1JWMNoi8Vl4bvT8cpldDev9VR5lFica1MhRJfuRiM3/4TNPHOf2K0rYub5hBrZ39AK2efpUp+xVgUMe7x4gBwhFSUnSBmQm4t4LQurlVoNVcxFqKhybto4oHHKDE4aSxbDzfcIYqzr9DyGz+k/PJFY1EkueGH++NCW2kauFpk2CEWV/3LYFls8rqif+o+Y9lauKEOsfjKV2jlwstGU2AEGBlI0PBAXFb5b0as84JzgZ3CW1fwce66/1M0cueHVd9CuCEOUSms0sILf0r51Tlj0cu+HcMpdoZ420u8NxtKlTrNZ8q8vvDvfI7xumJyi60rrrtD5OZP0sKLfxa4Th/mEWF8KEnJG3hpuBWAc4CRIu8sNgcn3kqT7/gsrysmjOXm4ro6RHbudZp9/k+NpgvGiZEkrxMSxvLjCTiFu9jUdcWjvK6411huHq6bQ6zPvEqXX/xLo2HRGKU9O/p+7EaFTljOluV+hUUkGqXJ+z5Fo3d+yFhuDq6LQ+TnT9Cl5/7MaHovYf9En9G2YYG7mxgtGs5NrLHb38vris8Z7cbjmnfXZr1CSye+aTS9ith2hvbA1LlnR1pGT4vM+edo5uAfUTXf/kbd9cY1d4jF156g0tplkXElsWs8JfI22gM34PbyVDqQjhsLL8QXTtNlXnsVFk4Yy43DNZ0yshcP0ezhvzYa0dRYWu4xbGNjoBkwfeBZiEUkFqcpXleM3PEBY7n+uGYjRDW/SMsnv2M0YkdIvumcoUkNKhfWqZTLULMRfNx9tcC9GHSgnSP+iIpdXXNHnqDFI39jLNcf12yEmHvhz2nt8msi4zb0vp19sgfhzYJSbpWmjz5D1XJBGi+WSNHUWx+kkcn9Jsa1w3qxRguZUuCJ6dCuu2ni/scpMbDDWK4ProlDZM48SQvHvmE0ot08Jw71+XPirY5yPktnX/oOlUo1mlmIULkaoX27ojQyFKE99zxCwzv3mZjXDriziSmkVMFeT7WlhnbS5AOPXddNN1ftEKXlszR98E+oUde5b2woSRPOsHerAxtwzzz3DVrJ5On7h+JUKEVkRxVO2nseILrv7gG64+GPXZfb77VaXR6j41mIoklRXlfsvOcTNHbXR43t2uKq1xBLr3/DcwZsWtkxnBT5zYLl6VO8bsjRD1+KU7kSo2Q8Rol4nBKxGL1yIkLZ9QqtL8+Y2FcJ9E0hXp806xSPNmn3WJLGBmJik93htQrNH32CZg/9iUl0bXFVDrF07O8pv3TeaCTO0O2JZb1apsLaMh+b/4BnS4MbJzNzhs7MxHhkYEdgJ4AzJBNMzKMUo2OnmpSdnzYJrgYYcwxZxzA6bvdPjSYxnIs9wrbspVdp5unf5/Briyt2iPWZw7R85hmjwRlSgWvpMBbPH6eTzz5B5195kk4//3XKLl0yIVsXucyCLCJPn4+yo2O3VlScAs6A5zJR1s9dalAhX6BKKW9S9Q6ZrTEaoIPwVQtGAIwM9p0QuZLhMOgjfVHaM57khXpT7E1ecK4vnKa5Q/6zomuBK3KIejkbuMTE9rZuU8XypVN06eRr9O1nib7y9Rh9+5kqnXjxJSpmg7ulthryK7O0sh6lXBG7srEjG6SnDM6B0bDZiND0bJ2Ka5u4s2gcIcKXsSwYYl0cQkcA0U24jAzMB1O8mGWn6GeOOKC1iy/S7LP/i8OvDa7IIRaP/QOV1xdFxonawQvJTsC1+xKPDs+/FqXVbEJ6V2Y1Tj98sUmzZ3CZioPdmsivztMFXh6gJ8v8zb2yzr2zwbpy9Oomnb1QpUI2wyk6HQvb0ajS4Nr7QToCqCx6yO7pwjFSNHiEItrLTjHUx+4gYewUPH0sHb029yo27RDYC7k2/YrRdN3Ql+q877G4uswOwAuh5QSleO5NJ8ETVKnE6eUj67wgmzUxtxZqlRJVijmaXWKXFgdoUo0bqVavU7VWEw4bws5PF2l+qUT5tfCIpz2bW83nInMDs25HAnWIDiMDh4luwiFHme8eTdDEUFziwL584htUuHyY010dNuUQxaVTtHDcf3CFNQM2unRDnofSi3M6vMocbBZlMZ6Tj5/m6/qz5/hYcQK2Fgpc70Yzwo7MDc+Nbx2hUjXEsnUMvLTz7KFlyvMUqPO/NmSwp7dZGwhpOMI8XUjjS5iN48VX+9hAlNIJf02x8Or/46uQq3uNsWeHaFTyfFXxdT4O3e2DF2F28up3I1QKa7SyxlcecvGhVyCymILI7NDLWVpb2HoLzHIuQ2t4L5gbW8l3iqpw1RGG6ePUmVUqlZtULhY5NRzc6fHceHzQqrPsjQBCGm57ukuSBufKxLNp1I48G7RjEAt5Lae0NkOZ40+wfOXo2SEWXvtbKqz619u4+dTLFnkMu9k8D7l84nAiy1W83WSH3AadOJ2jF148T6X85l7Tu95AvauViNSxyp0ADoBRQQjHILLvIJg6sjnm3ItlXYBea0cE03joyQE9TEjjjAwaB/npyGDTuLyf++T4IJoRepNWTn6PKqvBHe2bQU8OsXLqu7xueNVoRJOjaRrs8dY05uJcwZ974QxlnETpYWznA/3Bj+apkFtjP4enbw3ghO/YkaBEIspt2/RGBXUCQ7AxYcTDZejOiRGKRNFJtMfqGsD0aui2l4s9PDJouMiwIY7YHS525KHxYIe8gx0ijZ1oHF6vFijz+rfYfmXY0CHwTH7xxLeNpremRwd7fYrJiy7uXdhpjB6F0aFUAVV0pKhVxUmyWWxRj1KdT/JWQXpwjFLJGH3g4QHWcJWhVxbi2EzgDfRaBma/Rx+7j/oH++WEaq/WXiy93c79QnAgkBtuwjyb2gMjA8v2SkPyhi6kjjU+wLVAGBPuETUqOanbZrGhQywex0MreCLJqLC55xS4bo9RMtnUIVZGB50yyrIww0lt0h2388nvS1+X5wFXipHdt1MsnqB33jdEX3psN91/9xDt4Ms9F7glcf+9k/TLv/xeeuih22TRnGQn0t6tDeWPAA5JT9cerj3d9HixmxHAhEOWhjbhnhyiwTTxJb2ev1ppjbLn/JuGmwGXKyW3xfrFQ3TZbHjBemHvFTzSPn/4e3Tw5TU6eLhgLEEcODBCX/rSu2l4ZJAGBgfZshWcgk8J/5cLWXmWUatVKBJLyIOlKPP5pQpPdVHatWeUBgcHKBpPUpydIc2X3zJC8B8a2D+1yA+y0a3shgtrY2+XLqCLIJ8LazVazeuif3D3vbTvo78p8mbQ1SEuH/wjuT0KYN3Q+1ThI7cySwvnXqOZhTqdm65SJlunBPeiPbuH6PY7djBNUTyZpv6BQe8u4M1D6EQzxxBdzK3Kc5gaj2o8jPHU0aR4IsX1ZkeAM3DPxFcRBBpMsgjJgQZUh4H7K4cbhXQ3fifZ4flSnWZW9EFjLNlPd/1TPADbXAfr6BCFhddp+qDeJ8cl5m1TPD9e4ZCeX1ukzMwbXG2eQvhESo9K9VPfwDAl+wcpkUhwyJXlffXwT7DfMDiNbRrMO1XgfjrllsCMHIgPFrL3lA66yvjz66OWQP3479xCldc3mv62T/w29U1u7l2Pjg4x++L/oezMEZFx88nd2nVl4EUZrx8avBjDSjzOTrBZ773msA0gBGZke0o2CrdhonJzsN1vKEcXrroipAu3BBa2A23CA7rSAo/Aq3lebDKmHvoijd33mMi9ou0YXV69RNnLR0XGQg+v3l09IrxIS1IixeuQBBZnN8EZcOKEsFDTVbvIWMmb1T90WcmHectVAJOs9iGb1b/YsfJ3rg5CeVoK60ImjUdYUNpFJZNfRifepIGUPb4GlZbPyGFvBm0dIjt9iDOEx+HdATz7v9lz+9VCe48SThZOmmtTkpU9E3ov4gXuG0DnkwwZ4b3fN7B5qd02sNiFtAyPTD6e7Og2jVdGG929O1TKXDBS72hp6Ua1QGuXdKoAhtghbk1gSNaTryOA25NMrxW7GRlMuPR208OVNFzDbLgJM3lYe2BkYLnTfQMJNwTZjlRW78ZbKVi3aETjgsqZS9Sslcz56A0tDlHkxWQdX+7JwMMrvEhyyyHUc5TQK3GijJ3l7iMACHE0XOOoXeKCS1zkoekQDlkaxISrbPQAmTwcsno33o0QRwdzlUGF+WMw9IwWhygsv2EkvJO58bOKrQE+eHvypbeZHofeKD0Vdu1Fnt3q6L3W7hJ6e8CG3u2MAEyBEUB0lYVvSLa+Ptk8uvFW0pEQhDhcAR4lzPnwHKN3tI4Qy/4eSXzj29aGOWB78HJSjMxke421i85yy8gA3YTLqCBxNNyTkdZyY/fzgB15qE1IZKMjjonXjQJldOCt1Fo//UYm1TeLQIvXCstUNN8Oi6sLfP/j1gMfJE42kx0BtHcoL6wt0sqlN2jx/DEqrq9IHO1B6N0aR2wiO7oN9+Ibm4Sr3VsLGLuODMGRQ0YnI0ucdlzyQh42f0MmjuomTHTNPxjeqvOH6FHrnEKbc4qAQ5RW/NEB08VWerYgCPU0r1fwgWM399mXvkfnX/0hzZ09QosXT9G5V56Wu6RUx5eca3ztUdqrkJfX021erj1QHuJpXLU7uiUvrlIgT4+bso3ejTrn4XMlP0+QP0IwGv631fSCgEOUs/rWNoDvhLzpsA0ijaM9U2T0BtPDoGfmztP5V5+mYi5Lc0tEx3gZ9AZ2xrNDr8xeoIsnX+K4fk+yPQtphTs9XPPU3gk9UKZnMyT1cHQ4iBMeKMPj/tUPeGfS44bcjSs5V1RMcbnS0PQVp017Qcgh/C8Fu7kOAe+25B900M69hG0L54/T7OlXaH4lQk/8IE7ffyFOR07F6dBrcfr2s7pjupjN0PryHPciM99yOp37g70VZfhrAuVCKN+Ee3I7knBfl7yYvDLa6EKQYWM5u7pKq8vLVK1iK5wTtwO35OqJmC9X1/027QVBh8jpTmrgxn9hKB+ANDyT6Xk6Pzu9QuxmZGB59o0jtDR9mkeDCP3gUJwqFX2ZJs6ER9Era1F68nn0ngjl1pYkH39uNnkjT2P3RgaxI1zjINwbKRzZq1cX3kq2/CBhp9XFs+fo7JlLdOz1BebnKZfNcjZOnm59ja718+sNSkT1XGKUqebnzfntDQGHqOSxlVxx40YIVN6Q8Wol7r3GJt7PBygreehsX758lqeKC3TyfIxePJ6gmLxVZV6zMxyOgTeuFlcjVC0VOKntSX7ekJG3yLCJbPQNKNxbfW7quQG5abKZDM3MFeiJp+L03efi9PWno3TuQkY2ECG8OwGG8yUnH76KTFWnk/eCmzQvcOXtyRcyvU88HLLbA9n7pRf4vQKPoxcvvE7TsxE6fCJKMV4rYESI46EZr6h0lNDvxUbYEvt5o27yMnlo3ioL35Dc+irZPFq5xoXeSsH7BpavrGTo5eOod4LSiQSVy3F66rkGLa3kJLwz2XoxF+fmKSOqHHlX169ihLj+QKVxALby9kBCBBuT9B7hHI9l9OpGo0qzZ16lNT5PPzrMB2DepsKeRnEGGSF4dGDniDEhrFKNUoSdxOYh3JaPMqQcyEY35Yvs6U5cQ+Fe3o63klnHMNk42Iq3nitTJqvvjPalkuIU+QJeVahQqdJadjeydysxQtTL6/I4olfcAIfgSkrDc29Ab+QRQFfytneYEQB2IbXLXCtxNZ3KdXaGo1QoFHhYxa5tU4SBe5kM0dF0843kzWWbcvhDyrejhO2tQa51UN2tj4b7ugkTXfMPhru6Xz70arlEKzytoTnZKJ8WLx8p0twKN2w9eHUS5HqO8W6G5M+EJSC7GlOTKqu9v+bQ0SHcr8q7MlhHQD5KXq8wPdDjdgQQwvyuc7ynm16VW56n3OoSTxMNysoeUr/JAWRnoSUpEnx28Oidj4rJhjCZ8q3u1a8L70bIX7nVN+YgvAhUKGN3N7b8N8wG5JrsSM/ma/T335qjbGOI0wBIq/A58lEOGzheClaZqJbr/dIz4BCJvhEjcSZX4hD2BIsjOITeYHo4dPXskO72IEuwGXu9XqWFS6dpLd+kV05U5T0IvFtpueyI5jLwJRtYiNld0SBspceGWa0Hym5PKKeVB3tmZ9Jjh9w5L8v9eCBsGipVdCMynKFYxjSBzcjYlV6n89PrdHa6SrVIOpC2hbNDQkZdcC/Crlc2cy8i4BDx9LCR2CHMNqzegLiW7IE6ugnzRwSHWzt6F6drNzLAlrl8gep8wp4/gp9X5APFHycTh2AdDiEvA8EpmIvOhPB4ktcSMTy11fI6UaB+HXS/fmFdj9OL2yNX4nMfj3gOIa8rCNfXBdGw1XqUmjHsWkNaIMx1NFDCvQjl0GubuBfRcYSoON/a3h6+p2rPMz2eZc9jxQ7dt8s8LHE13K4NNMwJt/FN3GxmQbbeXZjV0QGNX+cw+96ljAzyhpUlY2eqN/i0cFrkwxm24f5I1Upu3bqTuzZRnbmnm3MguuYJHYTF8MRYTOqM0cESHANOfWD/CL393r0UreU5nZ73Vh6kmIwQSuX13l+oDo4Q7pTRcYRgO1cCJF4OGRzeaGS1aw/37d1HAD+Om4dyfGURnADveOAmEyBOYUcGJn0z25DI/kixts6NEYlpnjbvDrwbtU9jjtHolsJ6kACfJ5Nx2rs7TT/9kRHaPZlkx2crH9/ISJIe/fTd9OVfeh/1NRYp1ihKvp0IealMZJ9LygiR6/3nLPn8SwsIVs88RfPHviYyvnZ31zjPWYAXRQu1OpLairg6goXznzyaB8enzUe4JTAj23AbZnT0qvMnj4r1a9/P0pkLugsIB4sbUrj0xNvkuMqwFxpIatcYb71zmB779O00yScYwVofxDH1YjlQP7GAgTu2tuEiKIlqZBEN76Q7dowOi6s1akRTsjM9lkxTgqkv3qBkY42doWCS27QMGPRAVHfyq3AfuLCsaizZR2/7Bf+t/W7oOEKg92kBljDUgXyb7R1iY8JJVd46Mtjw1pHB1yUNuNiNDpkPun9oWNYBH3hkxNungRgyQsioYKcIMzrIdKJhcVlU8vxr85SULjf13YDap3W5OR+OvTfSVx327EzS7rEmTfRXaEcyR+ORWeqrzYkzAMgT7a+8lZCXleX2tZHrlQLVC8Y7NkDQIWRRyRnxicNJlflO5nB/DRC8b8A2Y/fmfshi13Qt4Va34V585Kl2d47Vsus0OraTHSNG42Np+meP7qZ0yjgF1xVOIS/f8tpBXhkUGWsKfcN8//5RivBVhrcKN+WEyxe5rc7xWOcP0bWeVjfnxuhCRpe4EifMcY4Rh0clEw82cOxliEeqFGuWOczUrxt56f0ydOTjkQX3Iowdv4jcC0IjxCgnhgSH0J4L2e2tXIJvF+J4XKD0ZKsLuXE13KZRu3IhyCaeyGJ3dKZUOkWTU7vkJZ+pyQH68s++he6/xx/RAInJaS0Bk5OD9OCD+/jSM8kHa+toyu+BWwrr3YnBcyV6M3TlOror1zjgegNN8w+Tpm3Vbdogd6G2ZAznT1FdPWek7uB2MmeO0WzU6NQTv8ECTDz37hkQj+HTKwUjKgoWnaOgxwlsFiadEpiRbbgnG92NL6aQ3U0nrMmr7zKtZnkIxcqLaXGpTK8cXaZLl/M0v+Dfoh0eStGdbxmnj3/ibhocSFMqUqYUz8UCtw4dyjGCkqhGFtHwTrrhgfPVTuc/gbBwHowey2kbjwtYzhGtFFAS0ejdn6TdH/kPIndDwCGAM1/7dzLnAHdO2Zd7OYpEcwr0bEBIN+G+49gTgpHD6MaOz3A6JTDDAzqnYlYs16hQRQ68mOSrD9DySony+RoNj/TTzokhtmGhGeUYdeqvL1IE05HAz0ccnf+8eoFzgNUlbkCHYHgnvcUOsCxqyCbM2oLc1iOst9bXHgfAnxA4IFcmmsW397BhYOo+OvD4H0uMbghMGUA8OSjzEuZBzMPe3M+NKfOVO/cKmXA7lznh/hpA7fwRsmsY7Fg3KFndxPW4yROEBk5FaMdARL6NLR6Py1QyOTVKd751iiamRmQBiquOOF+q9dX4sotHP6R36+7mKVzqaXVTN083stE9m3A0QnuuZGWXdyEuA1zzAGka/nA4l4E1CLiJA44w5bgXAVnj4ItEekGLQyT6cc+cM+LpADd92q0NxIZCoaMCEq6Fa1qNA66EuBoulbW6G9aGvLy68HSUF5yJAo3G1mkwkqN+ylG6yby+RAM1XqXXl7kutY55dCdbNyDMpRMarrZ2vBshL+Xt0iqUI55yhaZtJQOTGGsmyFAbVXz31cZocYhYgkcIaThdWHoea7zWJelR4KJrD/ft6GGml5k47QlltZPdvDXM1zUedEvEjR5rlnhEyFGinqUobuKYUSGYl58WvDPpOVAyuufYGieQN4e1lqF1DnD8ia55Kw+mCeYV5Eoalz9UBreyQ3jAK2nx1+MbXK0jRN8we5QWJiMEy+GRweqII3HFbnTLTbgQbHIAzkGYeN10r4ywbvKROnUhG6cbvzICkEc7jh6pccBhC3KfNE07HsxDuQu1KbcyA1MESGTu3NhsqyI7xJWOEKkRPvfqkdUq93g7MjhrAzti2HsR7shQLKzT0sx5WpmfoYpsW9ORgyNqnBZu0opu8m9LCDPhpnwvTHQnrVcv1WXE8nQdtawuBBk2o7dyPsngbe4beFzmcxvWhbz0bhma1uewmzI9buKaDgjSsDYcTuLZVKyWr9Qh0ri2Z0/lXHBzyhsBnEIQLhUTbu0NWpq9SOeOH6bF2WlamLlA504epZUFPFjReC09Pay3JTM6Mdk4m+G9EYA0Lvd7pealvNt9A5cqlRrNzmfp1NkleuN8hmYXctzB7Mjq563w6+BzlxT2trwklnoolKNchZahzmDr6z647IYWh4j3j3q9RR4zo/c4vdjr8WK3ekO+VhBOcJHb/++ejNJXvxmh519t0uzMHOXW+Pqf4/jeb7g4VdDeSjgwlfnDcKu7nI++jb2VNJ5yQ8a5NU2XMkxd/bJs3ZhLeqVcvkznLixTFtd9jDpshRpdnMtTrlgN5Nme3Lr5spbr6AiTT04Dbu2Gs/+JjL94/xiqsiHarCGQUL0cj5Stt9m1gZCVTcE4octzl2luOUrPvprgy9UEz18JujATp289QzQ3N8vrkTYrfZPe1YVMnLCOkyVpPF3DPb0N3wz5aYEw156ohHjKRed5W2VuGl6IX55bh5EWMhH62g+j9JWvReg7B4lmF5s0n6lRsaJxFZa70HpI5oBZG1jVhnvBlktljM4f3Hwig+LSrhujdYTAj3zxSYYHy/MMeKyMGBgVgiOD2Fiu1yqUW12h107zdb/Z9Wy3wheLUXr5tRqtLON7oLVnbI78tQHK6sy1fv5agTlkr75uXD6hHTjiKFnZtXUgnB8Qy6vrBXl+cu4S0XcPRmk9h9/ViNFyJkpPPkd04g38IDzu8fDJ5vicSLmMPpBRXhfOjuDyIJn6mDDselMbX3HIUmBjtDgE/CmewtcDaiUwSqCyogv5snp5k0r5HJUrJLuG8S4EnAHfeI8vOYdznOKTMD2TpwpHsj0pSO5VS3duKawHCWjl0nOEq60d1x6lccJk09o4gMfN6h4/uVSrR+jQMT127Rj6oyvoIK8cI55Wm7SQ8/d2SIaW8YfPbZkKLYN1Y9C62Pq0EqYMGzfe39uv+bVxCE6cHuJyuXD2Lni7erIltYPgfeClYoEy6/o9cvjEDmfcJcS7EnaPwqHDiFPkDmu8OEDqyW6ePtfyrG4prLPBIaNb5zW6pjFceiT0YFmQA1ziQde83TCbxvZuvH1VLvNaYVbOgrwagFcB0EmU1PajF6t8LrgDFZOSpyX8SZ7CtSwWgtzawcN/1mbiFHgJI3HZNrD3J5hvjLYOIStSrhgyqtb0JAqxLmR068HVSoXyRavhxGiF4ExaQaLL81U6fHSdVgu6LmlHSN3KtR5WtxTWeyHtLJ04nFnl9tzm4ZPVAfAK3p9g719a1Z9fss6g74qoDFuzEeUOUqZCLUWFuvl2Py7Iz0the7fHzYcXHib+sHKdRx/2TZGjiT4avOODLG2M9g4xOMnHqo5g71ZqbwD3rzi0p/Bag9cQ+ZJuVsG6A/sS5KuLZZMoNqvoSPPUjxbpjYtFyldxUvy1Qff7BtD9cCETLmE2ToDziQX37hvAKTXck5351Q9rQ6YckOQppGn4Q7kpA8cOZHM6WgJoJHy/J0ZK5WqfvlylHz6fpWxtmCqNhMmrG9lyjeyMXBrm6ByWK6N+ki0N7O9tdADaOkRyaEoFzg03p7zegNyZXB0yVtaVqo4IcCD95njd7IqThDuemCoQ9vQzs1SJ8BoFj69N75e8DO+NAKRxufYG5RoHHLYg90nTtupAK3ehtiDHyMhrIW7xSi0Y28LGBhDj+Kk8vXSEnSKyi+qU1B4O4ph65aLxRDeJAlzFALfAj82KkWlg77vV2APajxBDu7j2aCxtROkFxithc3XrrVjRWifA+wT2ZROQ3b0E55hbyMuPnFfNOwZSDvIwvD0hnkNSD+0Z0L36hDnqJ3W0vcjh/MeCsSlZXfMwXOJB1zzbks2LzwGAaRZ7OeEg8mqA0zHQaWC30+rTBxfpyOvrlI3fxjVNiE3+wF2Z/1gQ2eMa6nNrY1aosCeYuIMH/hGq1RPaOkRqZC9/auZoaO0lzE0Brg7CTximkhFudH1kbrewBZ0BJ45oYmJQHlXrlj/NR/IyvJWAdnanHvzZyr0OwqQ2j0vv8/OwFMyTuRdP0yosd2HSRDEl8CllVZyBncXuBrfnQByCj9tuAMYp+Pq3zlOxGqdS+gCXg7IM8YfLAcjClTHX+ohurkKyPH1j6Qd5+I73U3L0AJSe0NYh4gMT+mIL1xa3W7VXueTM/0xxvrycGI/LSZBRwYwQWEeAo3fAo2PxCH3yk3dz5fnqo5Hn/P37GshHZKN7tracD9xw2JSs7No6EJdh1ySunT+CHL3Yi6dlIky4GXk0rnJtFJCOhvYtMpdgkzDO13+3pEknXl+mWmIn1WN9kl/wOEwZUqapHxzBhIluOCjPo4PGb9LQW34KteoZbR0CSA7s5E+MEDq8wRPDhHDwVDpNdx5I0R379PckEKLeD0mxZ88Q/eovv4/uuHOSkvUVHiEqbNU8fAJ8rr3ActMLhGscrYflraRpXe6kld7k5gWoHOASAN3aGKYiwsxcjw88bpbL7ZhZYIPs6MBdtmp0f6TQcwuwSTphM6E3kFpHAgeuEgggHmkilC+rMT12gEbu+YzIvYJHfKfVHMwf/J+UOf2UyJMjMRrp40KM1ymYm6Tw2pnLS9wDiE6fr9BqjhdX0bhuYeODvFN+BmGCEviJxlqGEvVVSWfTB/IUZvLlPxwaqijc6o7dB8tQ0dCe2QgblNOqA44MuxZsoIJfHw0u4ucJlhv09WfKdGlOp1K8M2KvORAfdfZePWSy+NVffR/t3beDkrnXKV6yb1qZAm0BgfoBrfpCLk5r5sHm5MM/Rzvf969V6REdHSJ/6QWafvJ3RcYPfe0blz3drNnoenB6QviPDw4Pc/DSap10S1s0npDflUglmpSM1mTziqxDbB5e0SEetoN5DW3DGC3xmDsnDvVSNeRITBgZNDqsvq6wgmcwMLomYB4Mr9aadHGhTgePVOjl41W5zGx1CB49ZXTw0z780F56/LPv5Dyj1J95jocLvKGl8f36ojiWrEE/AihUozSz6g/6b/3CX1Fy5z1G6w0dpwxcqsgr9Nz7C+z55Yrdk8jU5r4B6jkymKSpcbxsgv2OdRpPlWg8vkIDjRVK1LIcT5996DzYhps5Gwcu5XjchIVt7UjSK0mewjWNx00ZGu5zCeN5mgUTd2PukryCzyfi9r089LOOEcAuru0CG+sH1xnufttO+pmfuU+cIV64yKtB7CFx642yjA4nkLSQoUK2tiatyjdSqzx+/+c27QxAR4fAkQ3sfRcLWkAeNzq4IjrnwnOVtyOEJaI8TvCooDZAvb0zh/Or3J63kqbV/Fu5C78OPndJYedtSczkqxrP081qXqJJPJbNWiLNV1t7JlP08P19iNoRoyNp+pmffht98YvvojhPpfHKMiULZ9xCu8AECuMP/s+WopTHvQdGangX7Xz3l0XeLDpOGcDqyW/S3ME/ZKlJ6QTR/nH4D0f3khge0BGumi8oR1GoMvu98rDOfwJmOMkmlfz3tDaArhmr3imehRffqPwH1cKtl802oDMpfKnIa+X5tYR8hdH8UoNO8ZpqLccjBNbQPArsmuqnO+8cpbveOkExvMOZSFKiukSp3AktQODnp4DOJbr1dSqABenMWpzK8oJ2hHa9/9do/MGf18BNoqtDVHPzdPZvfoVHLNySbdKu4SgNs+O7DSkIH0jLgYXtAMuihuIA7fKTAoP2dg5lo7U4lMAKnsHA6C3xLEK6Vx9Vw+Hr3FtXi3z5yItq/Ggbrh6wnpIfcmMejSXFGZKUp1RlmqIVnk4Dx9cJCLcF+xXAk9O1InSiwb0P0oHH/0zkK0FXhwAufee3KHfpZZGTPEfuG8NDG5PES6rcb5A2DcQ9XKPbNIxQeo+H7RvGA1gWNWQTxpwrYhhbbf1COsIlnl//IEJ6oHzA1/GdFPlqkuqRFDUj6gy46sI34yUiZUo2dGd4AH4FbMU2AK8b2PkWczrzR+Mpuv0zf0DpPY+IfiXY0CFKSydp+pu/qS96cNTRgQhNYLsEEEhqZeae2bEJ6677DeM3iOo4P9o8Ptd4CsM1onIDxClV6lTiNRB+Oa+vP0by85aheIqQvkF4oH4s+PU22Yfia0RwVR2hA8LpmZwCChW+qlgz0zgb9n/gX9HQO3+B5SvHhg4BrBz5Ki28+Bdcrkbdy1cRuBT1Kmzs/gkKNahj98GyqCGbMGsL8bC9JZ6F6qvZKi1mynrzx1sxEu3emaThAb0S8DqkcFtfOd/MQ/l65Vl00L0MeolvSzQsWIEQfEOuEqHZrPlWEMbU/Z+mHR/+T0a7cvTkEMDMt/89rU+/JHKanWE/O4V/IDYLqzNdxX2DsO47FKJrMwmXaBpXoTJut19eLNN6vk6nLkZpdglfXhrhy+ImffDhJg0NRujOPbygs1OfhVcfVYN5A0YH43jtHCige/mZdBtig3gmY6wXsG6w8Yf2PEj7P/u/Rb5a9OwQpcXXeer4t1QvF7gaTR4hIrR7BHfjTATvYJh7OTo2YRvont37UA6xjYNJg3D5yEbOO/9haphZKNH8Cr7YNM7X/lEOUzfCs4NUqkmPf5Ro13iMhvpt5U2eYJKRX4aig+6ZN4gvFQxU1OcBdAzwsFKI0jKTgKP1738v3f4YrgSvDTrfhwghPXEP7XjH51nSXoCdw9N80mt8AYLTDVuQ46A6cY3Tjius3Ikr7CwgjD8KRXaGxYqMCt8/lGAH0G+GTSXAEyJXeN5dXovguZWkcwkfHhfB6A4PAMauEQzCFXXTuLIXBm4DfKwUY74zMAbe8rFr6gxAzw4BjL/zizTx4Be4WfQmVYV73LnlBpW8J6IYxg03d/yCd9ws1zjC0ciO3pYkjiFH9vLksvLFGs2uVOiF4w167ghOqfn+61iMkomEbGHDfkbcSq41ILMLSlrNB3+BPME11OfGJtwlN8wjMCN73NiM6skSZowB7gNrhuWccRIOGrrjw3Tbp35P9WuITTkEsOPhX6Rdj/yiyKgeejZGCtyQgWxtWnVX1wNtzzWOIswBjcuRFJg+mKya45FhbqVBTz5fp6MnMY2xOzCBwykAf8MvryWGE4QfG2RR8rAcgCxcPt364cPUA6IYfD0INxP+cLlL1iZcBJVDwN7IpTyvGUxQ/+Q9tPfj/0WVa4xNOwQw9o4v0v6P/UfuvP6ocCnToGxJZSEOQ+/2dCar84fPvXh8Yo1NOJ/oQG/twPFAaWGtScfO1uj18+Ybbnk+AJcNKjyK4WGSPENgjkfTYyMJvgR162by5JHGqxca2todLuTUTWBsXrhHJszjIbJpPA4YXUQtZ4kXkPK1oWyOxtM0+f5fo2hiQONcY1yRQwADt/0k3fWFv2Sn1QMAn+OGsY9ewz0/6PfmgAPcygwTWdI6I4FflgI3u/C2XDSaoONn9BtfQeoUugEFjmB3cOFh08SOmFwlmYHDyduBqwQCQvCGE3AmwzwCArxdQDuYMGZL+TgV7B5NZpM/8SvUv++9ql8HXLFDAPHhPXTPL32f4qkhdXD+WMg2aTnPDYPGM71PuY4EATINbBIrlzCVNQ/D8Wniubze0D0XFR4pAN1noE8VsTHF7uDSJ451mpzi6SLh5MF/XhmwuWRt4B4BRg7HMcwjsRklkA9gOWDkUNzVIm6BsxcY89jdn6LxB/8FYl43XJVDWNz18/9A6XHs29ORYoUdYkm+rd6dg5Xr0VmYIzUdQNcGVg6Iyo3gcaZkMsrTQILuvUtvn8IhdJeSPnrGtjUdIXT72uBgUr6dLZA3f3j1E4OpVwvcVJJIETJ7hI9wpdvCxjEf/J/nq6FFu25gGtj9AE19+DcR4brimjgEcMfn/4IG9ryLnVt7eIadYh4vfZvRAD1SZJxo9ADRN+Y++XO9yqr3x6s8r8bpPe8ao10T+tKLjA7iCLqvU/d41nhxVqXh4T4+v5oHf0getn4siE04ELZJ3DCZeO3IS+vE6ZqfxqvwInJ+nZ3B2OPpMZr64G/wuqEfOV1XXDOHAA58+n/Q6N0fNxpR1vsWNIXXScTru68NrI40CFceJHxgcTjWV6JUXx99/rHbaXxMncJuTlHH0A2uaPSpPaN8xcHOIBloOa2QQL8Qowp3CR8eF6E7JI6bRplHjCbHuZxN8IJYdQTs+sCvU3ryAaNfX1xThwB2f+S3aOLBL7LER8QNkOPL0ZlVPlqWtTeCTO80DWJ7pw33uLF5PGSTOEx9kRyNxjPc+1P05Z97O73noSmvfWSBaehDH7yNp4x+ijV55cu6DyOLTfNVbmxG9WXD8RFIE0IgzOUmzKiezB/TmShPd9DFQJOPfJmG7/60yDcCPd+63iyWXvhjWnzJ3l/nRktEaN8Irp1UDyKko0poUM/cPr5E49HERq9TjIrJA1SNj9HiYpGeOzRDmUyJBodSdN+9k3Tf/XsoWbpAycI5Sd8K5GsLDlRA0RIcCu+I3vK7tMr1r3EflXwjNPGOz9LEh36L5RuH6+YQwMrhP6f55/6Qj1eHf/zy44Fx3Yan5yFcdEhvqVoHHUwyVL0eH6Jqei/VkxM8BibYaRBIFCvNUSp3jIcNM2WEs2vBhhEUKBdlCIfO1Db/jgF0cTXOaxyEKSbu+ShNfOy/Ge3G4bo6BJA5+lWae+b3jcZOwWulPTxSyO85bNDg1pH8820dyZ7WUHq3QQQcIz5AjQh+FqFB0ar5amMP4fRMwQIMWgwdsEE8N1g43nshXjMEnWHswMO0+9Er3/V0NbjuDgGsnfg7uvz9/8rnQRsUN4V2D9WpLxkquqUqHXQwc0KDaKfbFjDMqo7ZR4uhA0wGrgN2zK9tgKBSj9AcX024zjC46wE68Pm/NNqNxw1xCCB39ns0/6P/TpXcvJwf9PjJwToNp93ijQzG4e1GBF9nzQsw6TbEBvHc/OwU0BVeAtFa4AaH6in3GXK8gMTPPxmMvP1R2vtTv2O0m4Mb5hBAeekUzT39u5SfPWIsPDz2N2lHf13Ovw9TJa9m4SqGdLcBAw2AQBcdA9pjw/wsNpev7oPEnOlj8iO/Qzvvf9RoNw831CGARrVE80/9Dq2e/o53vtOJJk0MNigVt1UJVclrmI2qivA2DeOaAzwUryPchA7a5tcmngM8tcwU/at9fPXCFDvD8G29f6nH9cQNdwiLxef+gC9L/9xouq7Y0d+g0T69R+GjXfXMiUe8QIMwBdAxoD02zM9ik/kysJ9htciXleZlGmBw3yPsDL9NqdF9xnLzcdMcAsie+Fua5SuQeiVvTm+T1xQN2smOEZc7txtVbYOGcYOFbxDfQ4d4rtnmt8FaAwtHPKRa42nCxc6HfpYm3/9vjLZ1cFMdAshfep7mn/49Kq2cY02rgs0rGCmGU9ifZ054m/ZpRa+HgnihfNvm3zFgQ1TZEdbL+rQSXwBm0bfzbTT53n9JA3d8xFi2Fm66QwDV9Vmae+o/0/qFg8ai6OfL0hEeMQZTtoqhqrrtFWi3FkMHbBDPDRa+UX7Y3aSOkGWq8+znYscDn6ed7/91it2Ah1RXii3hEBarR/8vLb/6V1RevWgsigFedI7wNAIeRK9VNy16nUaEAq8LSrUoFXmdADmMvh1voR3v+SUavusfG8vWxZZyCKBRWaflF/6IVo7+NdVr+uXhFgM8YgzwaIHfpMQVifwcmLQfH8I1vm+Azl3jGQtDP74RFnKjGZU7i+j5DZ4G8AwqPAq4gCOM3vc4jb3znxvL1seWcwiL0vwRyrBTrJ3+NjXqQcewSLJHYLNLKsFXKRF2EG5JXK3gt6ZizPETQ+BoPH3iGRGfwbfTN7lx1YZw+AA3fI0doIEvT8PObFPIJoGvYurf+xAN7H8vjdz7OWO9dbBlHcKisnyaMsf+mlZPfYvqpfCziE0CR2oHCDuydBsxekAs2S+7oNOT91Pf7nfRwO0fInyd0q2KLe8QFrX1y5R947tUmj0so0cpt9ymgR0eQMeAzojwsJMep+TgBKWGp5jvosTwLkoO7aX44E6Kpccomh6lWAq/hvzmwS3jEGHUlo5TfvoglTIX2TmWqFnOUL24Qo1ihpqNKh9ZnBpMmEjkexmiMe7OCZ5C4vKzz/jeBvTkWD837sAkxQemmO8SHh/aLV/vnEiwU/yY4ZZ1iG1cHwRvn23jxx7bDrGNALYdYhsBbDvENgLYdohtBLDtENsIYNshthHAtkNsI4Bth9hGANsOsQ0HRP8fjeom1jWeBVwAAAAASUVORK5CYII=;" vertex="1" parent="1">
          <mxGeometry x="120" y="1100" width="32" height="32" as="geometry" />
        </mxCell>
        <mxCell id="lEaRyh61AleIMzdtigNR-39" value="" style="shape=image;verticalLabelPosition=bottom;labelBackgroundColor=default;verticalAlign=top;aspect=fixed;imageAspect=0;image=data:image/png,iVBORw0KGgoAAAANSUhEUgAAAIQAAACECAYAAABRRIOnAAAAAXNSR0IArs4c6QAAAARnQU1BAACxjwv8YQUAAAAJcEhZcwAADsMAAA7DAcdvqGQAADMnSURBVHhe7X13jGXXed/3+ptedmdmO4tEkWKRRFKipchqkFUiWyIpRYkgOXZsyLCdPwLHQAwkcezASYAYBgInDgLDLbBjWAqMuNBQlyiKorjksiy5y93lFm6bnZ0+b+bN6zXf7/vOuffc+8q82TpLzW/me1859d7znXLvPfe9yMrKSnNsbIy2sQ0g0mQY+c2DeolqpSxVS2tULa4zX6d6Occ2pkqeqFakZr1G9UaNT0CDmkwN1knkOocxMYfOismUT1YkQrFohKKxKMVTQ5ToG6bUyB6KDeyh/sl7KN43amLeuri1HYIbrJy5SMW1aSqvzQpVC4vc6GUT4cYhkR6kkQPvppHb339LO8Yt5RDltRkqLZ2i0uo0lbLzTAsmZOtAHeNhdoyfvCUdY0s7RC03R4XFN6iwco4KS2dl6N8MEvGoDPHg8ZgZ7nnY53+RwVWOCkcYi8SiTA9h4FTVGyCuG39UakzVJhXKNaqy7CI5ME5T73hcppJbCVvOITAF5C4fpuLiKcqvbTwCoLH7kjFKJbnRTeNbJ7hRgJNkC1Vay1fZQXzHiMVTNPXAZ2jowCPGsvWxRRyiSbnpF2l99lXKzp40tlag16a54dPsAKA+OAEv8LYKcCrhFMvZijiJxcTbP07jb/uY0bY2bqpDYOW/+sZTlJs7RqX1JWMNoi8Vl4bvT8cpldDev9VR5lFica1MhRJfuRiM3/4TNPHOf2K0rYub5hBrZ39AK2efpUp+xVgUMe7x4gBwhFSUnSBmQm4t4LQurlVoNVcxFqKhybto4oHHKDE4aSxbDzfcIYqzr9DyGz+k/PJFY1EkueGH++NCW2kauFpk2CEWV/3LYFls8rqif+o+Y9lauKEOsfjKV2jlwstGU2AEGBlI0PBAXFb5b0as84JzgZ3CW1fwce66/1M0cueHVd9CuCEOUSms0sILf0r51Tlj0cu+HcMpdoZ420u8NxtKlTrNZ8q8vvDvfI7xumJyi60rrrtD5OZP0sKLfxa4Th/mEWF8KEnJG3hpuBWAc4CRIu8sNgcn3kqT7/gsrysmjOXm4ro6RHbudZp9/k+NpgvGiZEkrxMSxvLjCTiFu9jUdcWjvK6411huHq6bQ6zPvEqXX/xLo2HRGKU9O/p+7EaFTljOluV+hUUkGqXJ+z5Fo3d+yFhuDq6LQ+TnT9Cl5/7MaHovYf9En9G2YYG7mxgtGs5NrLHb38vris8Z7cbjmnfXZr1CSye+aTS9ith2hvbA1LlnR1pGT4vM+edo5uAfUTXf/kbd9cY1d4jF156g0tplkXElsWs8JfI22gM34PbyVDqQjhsLL8QXTtNlXnsVFk4Yy43DNZ0yshcP0ezhvzYa0dRYWu4xbGNjoBkwfeBZiEUkFqcpXleM3PEBY7n+uGYjRDW/SMsnv2M0YkdIvumcoUkNKhfWqZTLULMRfNx9tcC9GHSgnSP+iIpdXXNHnqDFI39jLNcf12yEmHvhz2nt8msi4zb0vp19sgfhzYJSbpWmjz5D1XJBGi+WSNHUWx+kkcn9Jsa1w3qxRguZUuCJ6dCuu2ni/scpMbDDWK4ProlDZM48SQvHvmE0ot08Jw71+XPirY5yPktnX/oOlUo1mlmIULkaoX27ojQyFKE99zxCwzv3mZjXDriziSmkVMFeT7WlhnbS5AOPXddNN1ftEKXlszR98E+oUde5b2woSRPOsHerAxtwzzz3DVrJ5On7h+JUKEVkRxVO2nseILrv7gG64+GPXZfb77VaXR6j41mIoklRXlfsvOcTNHbXR43t2uKq1xBLr3/DcwZsWtkxnBT5zYLl6VO8bsjRD1+KU7kSo2Q8Rol4nBKxGL1yIkLZ9QqtL8+Y2FcJ9E0hXp806xSPNmn3WJLGBmJik93htQrNH32CZg/9iUl0bXFVDrF07O8pv3TeaCTO0O2JZb1apsLaMh+b/4BnS4MbJzNzhs7MxHhkYEdgJ4AzJBNMzKMUo2OnmpSdnzYJrgYYcwxZxzA6bvdPjSYxnIs9wrbspVdp5unf5/Briyt2iPWZw7R85hmjwRlSgWvpMBbPH6eTzz5B5195kk4//3XKLl0yIVsXucyCLCJPn4+yo2O3VlScAs6A5zJR1s9dalAhX6BKKW9S9Q6ZrTEaoIPwVQtGAIwM9p0QuZLhMOgjfVHaM57khXpT7E1ecK4vnKa5Q/6zomuBK3KIejkbuMTE9rZuU8XypVN06eRr9O1nib7y9Rh9+5kqnXjxJSpmg7ulthryK7O0sh6lXBG7srEjG6SnDM6B0bDZiND0bJ2Ka5u4s2gcIcKXsSwYYl0cQkcA0U24jAzMB1O8mGWn6GeOOKC1iy/S7LP/i8OvDa7IIRaP/QOV1xdFxonawQvJTsC1+xKPDs+/FqXVbEJ6V2Y1Tj98sUmzZ3CZioPdmsivztMFXh6gJ8v8zb2yzr2zwbpy9Oomnb1QpUI2wyk6HQvb0ajS4Nr7QToCqCx6yO7pwjFSNHiEItrLTjHUx+4gYewUPH0sHb029yo27RDYC7k2/YrRdN3Ql+q877G4uswOwAuh5QSleO5NJ8ETVKnE6eUj67wgmzUxtxZqlRJVijmaXWKXFgdoUo0bqVavU7VWEw4bws5PF2l+qUT5tfCIpz2bW83nInMDs25HAnWIDiMDh4luwiFHme8eTdDEUFziwL584htUuHyY010dNuUQxaVTtHDcf3CFNQM2unRDnofSi3M6vMocbBZlMZ6Tj5/m6/qz5/hYcQK2Fgpc70Yzwo7MDc+Nbx2hUjXEsnUMvLTz7KFlyvMUqPO/NmSwp7dZGwhpOMI8XUjjS5iN48VX+9hAlNIJf02x8Or/46uQq3uNsWeHaFTyfFXxdT4O3e2DF2F28up3I1QKa7SyxlcecvGhVyCymILI7NDLWVpb2HoLzHIuQ2t4L5gbW8l3iqpw1RGG6ePUmVUqlZtULhY5NRzc6fHceHzQqrPsjQBCGm57ukuSBufKxLNp1I48G7RjEAt5Lae0NkOZ40+wfOXo2SEWXvtbKqz619u4+dTLFnkMu9k8D7l84nAiy1W83WSH3AadOJ2jF148T6X85l7Tu95AvauViNSxyp0ADoBRQQjHILLvIJg6sjnm3ItlXYBea0cE03joyQE9TEjjjAwaB/npyGDTuLyf++T4IJoRepNWTn6PKqvBHe2bQU8OsXLqu7xueNVoRJOjaRrs8dY05uJcwZ974QxlnETpYWznA/3Bj+apkFtjP4enbw3ghO/YkaBEIspt2/RGBXUCQ7AxYcTDZejOiRGKRNFJtMfqGsD0aui2l4s9PDJouMiwIY7YHS525KHxYIe8gx0ijZ1oHF6vFijz+rfYfmXY0CHwTH7xxLeNpremRwd7fYrJiy7uXdhpjB6F0aFUAVV0pKhVxUmyWWxRj1KdT/JWQXpwjFLJGH3g4QHWcJWhVxbi2EzgDfRaBma/Rx+7j/oH++WEaq/WXiy93c79QnAgkBtuwjyb2gMjA8v2SkPyhi6kjjU+wLVAGBPuETUqOanbZrGhQywex0MreCLJqLC55xS4bo9RMtnUIVZGB50yyrIww0lt0h2388nvS1+X5wFXipHdt1MsnqB33jdEX3psN91/9xDt4Ms9F7glcf+9k/TLv/xeeuih22TRnGQn0t6tDeWPAA5JT9cerj3d9HixmxHAhEOWhjbhnhyiwTTxJb2ev1ppjbLn/JuGmwGXKyW3xfrFQ3TZbHjBemHvFTzSPn/4e3Tw5TU6eLhgLEEcODBCX/rSu2l4ZJAGBgfZshWcgk8J/5cLWXmWUatVKBJLyIOlKPP5pQpPdVHatWeUBgcHKBpPUpydIc2X3zJC8B8a2D+1yA+y0a3shgtrY2+XLqCLIJ8LazVazeuif3D3vbTvo78p8mbQ1SEuH/wjuT0KYN3Q+1ThI7cySwvnXqOZhTqdm65SJlunBPeiPbuH6PY7djBNUTyZpv6BQe8u4M1D6EQzxxBdzK3Kc5gaj2o8jPHU0aR4IsX1ZkeAM3DPxFcRBBpMsgjJgQZUh4H7K4cbhXQ3fifZ4flSnWZW9EFjLNlPd/1TPADbXAfr6BCFhddp+qDeJ8cl5m1TPD9e4ZCeX1ukzMwbXG2eQvhESo9K9VPfwDAl+wcpkUhwyJXlffXwT7DfMDiNbRrMO1XgfjrllsCMHIgPFrL3lA66yvjz66OWQP3479xCldc3mv62T/w29U1u7l2Pjg4x++L/oezMEZFx88nd2nVl4EUZrx8avBjDSjzOTrBZ773msA0gBGZke0o2CrdhonJzsN1vKEcXrroipAu3BBa2A23CA7rSAo/Aq3lebDKmHvoijd33mMi9ou0YXV69RNnLR0XGQg+v3l09IrxIS1IixeuQBBZnN8EZcOKEsFDTVbvIWMmb1T90WcmHectVAJOs9iGb1b/YsfJ3rg5CeVoK60ImjUdYUNpFJZNfRifepIGUPb4GlZbPyGFvBm0dIjt9iDOEx+HdATz7v9lz+9VCe48SThZOmmtTkpU9E3ov4gXuG0DnkwwZ4b3fN7B5qd02sNiFtAyPTD6e7Og2jVdGG929O1TKXDBS72hp6Ua1QGuXdKoAhtghbk1gSNaTryOA25NMrxW7GRlMuPR208OVNFzDbLgJM3lYe2BkYLnTfQMJNwTZjlRW78ZbKVi3aETjgsqZS9Sslcz56A0tDlHkxWQdX+7JwMMrvEhyyyHUc5TQK3GijJ3l7iMACHE0XOOoXeKCS1zkoekQDlkaxISrbPQAmTwcsno33o0QRwdzlUGF+WMw9IwWhygsv2EkvJO58bOKrQE+eHvypbeZHofeKD0Vdu1Fnt3q6L3W7hJ6e8CG3u2MAEyBEUB0lYVvSLa+Ptk8uvFW0pEQhDhcAR4lzPnwHKN3tI4Qy/4eSXzj29aGOWB78HJSjMxke421i85yy8gA3YTLqCBxNNyTkdZyY/fzgB15qE1IZKMjjonXjQJldOCt1Fo//UYm1TeLQIvXCstUNN8Oi6sLfP/j1gMfJE42kx0BtHcoL6wt0sqlN2jx/DEqrq9IHO1B6N0aR2wiO7oN9+Ibm4Sr3VsLGLuODMGRQ0YnI0ucdlzyQh42f0MmjuomTHTNPxjeqvOH6FHrnEKbc4qAQ5RW/NEB08VWerYgCPU0r1fwgWM399mXvkfnX/0hzZ09QosXT9G5V56Wu6RUx5eca3ztUdqrkJfX021erj1QHuJpXLU7uiUvrlIgT4+bso3ejTrn4XMlP0+QP0IwGv631fSCgEOUs/rWNoDvhLzpsA0ijaM9U2T0BtPDoGfmztP5V5+mYi5Lc0tEx3gZ9AZ2xrNDr8xeoIsnX+K4fk+yPQtphTs9XPPU3gk9UKZnMyT1cHQ4iBMeKMPj/tUPeGfS44bcjSs5V1RMcbnS0PQVp017Qcgh/C8Fu7kOAe+25B900M69hG0L54/T7OlXaH4lQk/8IE7ffyFOR07F6dBrcfr2s7pjupjN0PryHPciM99yOp37g70VZfhrAuVCKN+Ee3I7knBfl7yYvDLa6EKQYWM5u7pKq8vLVK1iK5wTtwO35OqJmC9X1/027QVBh8jpTmrgxn9hKB+ANDyT6Xk6Pzu9QuxmZGB59o0jtDR9mkeDCP3gUJwqFX2ZJs6ER9Era1F68nn0ngjl1pYkH39uNnkjT2P3RgaxI1zjINwbKRzZq1cX3kq2/CBhp9XFs+fo7JlLdOz1BebnKZfNcjZOnm59ja718+sNSkT1XGKUqebnzfntDQGHqOSxlVxx40YIVN6Q8Wol7r3GJt7PBygreehsX758lqeKC3TyfIxePJ6gmLxVZV6zMxyOgTeuFlcjVC0VOKntSX7ekJG3yLCJbPQNKNxbfW7quQG5abKZDM3MFeiJp+L03efi9PWno3TuQkY2ECG8OwGG8yUnH76KTFWnk/eCmzQvcOXtyRcyvU88HLLbA9n7pRf4vQKPoxcvvE7TsxE6fCJKMV4rYESI46EZr6h0lNDvxUbYEvt5o27yMnlo3ioL35Dc+irZPFq5xoXeSsH7BpavrGTo5eOod4LSiQSVy3F66rkGLa3kJLwz2XoxF+fmKSOqHHlX169ihLj+QKVxALby9kBCBBuT9B7hHI9l9OpGo0qzZ16lNT5PPzrMB2DepsKeRnEGGSF4dGDniDEhrFKNUoSdxOYh3JaPMqQcyEY35Yvs6U5cQ+Fe3o63klnHMNk42Iq3nitTJqvvjPalkuIU+QJeVahQqdJadjeydysxQtTL6/I4olfcAIfgSkrDc29Ab+QRQFfytneYEQB2IbXLXCtxNZ3KdXaGo1QoFHhYxa5tU4SBe5kM0dF0843kzWWbcvhDyrejhO2tQa51UN2tj4b7ugkTXfMPhru6Xz70arlEKzytoTnZKJ8WLx8p0twKN2w9eHUS5HqO8W6G5M+EJSC7GlOTKqu9v+bQ0SHcr8q7MlhHQD5KXq8wPdDjdgQQwvyuc7ynm16VW56n3OoSTxMNysoeUr/JAWRnoSUpEnx28Oidj4rJhjCZ8q3u1a8L70bIX7nVN+YgvAhUKGN3N7b8N8wG5JrsSM/ma/T335qjbGOI0wBIq/A58lEOGzheClaZqJbr/dIz4BCJvhEjcSZX4hD2BIsjOITeYHo4dPXskO72IEuwGXu9XqWFS6dpLd+kV05U5T0IvFtpueyI5jLwJRtYiNld0SBspceGWa0Hym5PKKeVB3tmZ9Jjh9w5L8v9eCBsGipVdCMynKFYxjSBzcjYlV6n89PrdHa6SrVIOpC2hbNDQkZdcC/Crlc2cy8i4BDx9LCR2CHMNqzegLiW7IE6ugnzRwSHWzt6F6drNzLAlrl8gep8wp4/gp9X5APFHycTh2AdDiEvA8EpmIvOhPB4ktcSMTy11fI6UaB+HXS/fmFdj9OL2yNX4nMfj3gOIa8rCNfXBdGw1XqUmjHsWkNaIMx1NFDCvQjl0GubuBfRcYSoON/a3h6+p2rPMz2eZc9jxQ7dt8s8LHE13K4NNMwJt/FN3GxmQbbeXZjV0QGNX+cw+96ljAzyhpUlY2eqN/i0cFrkwxm24f5I1Upu3bqTuzZRnbmnm3MguuYJHYTF8MRYTOqM0cESHANOfWD/CL393r0UreU5nZ73Vh6kmIwQSuX13l+oDo4Q7pTRcYRgO1cCJF4OGRzeaGS1aw/37d1HAD+Om4dyfGURnADveOAmEyBOYUcGJn0z25DI/kixts6NEYlpnjbvDrwbtU9jjtHolsJ6kACfJ5Nx2rs7TT/9kRHaPZlkx2crH9/ISJIe/fTd9OVfeh/1NRYp1ihKvp0IealMZJ9LygiR6/3nLPn8SwsIVs88RfPHviYyvnZ31zjPWYAXRQu1OpLairg6goXznzyaB8enzUe4JTAj23AbZnT0qvMnj4r1a9/P0pkLugsIB4sbUrj0xNvkuMqwFxpIatcYb71zmB779O00yScYwVofxDH1YjlQP7GAgTu2tuEiKIlqZBEN76Q7dowOi6s1akRTsjM9lkxTgqkv3qBkY42doWCS27QMGPRAVHfyq3AfuLCsaizZR2/7Bf+t/W7oOEKg92kBljDUgXyb7R1iY8JJVd46Mtjw1pHB1yUNuNiNDpkPun9oWNYBH3hkxNungRgyQsioYKcIMzrIdKJhcVlU8vxr85SULjf13YDap3W5OR+OvTfSVx327EzS7rEmTfRXaEcyR+ORWeqrzYkzAMgT7a+8lZCXleX2tZHrlQLVC8Y7NkDQIWRRyRnxicNJlflO5nB/DRC8b8A2Y/fmfshi13Qt4Va34V585Kl2d47Vsus0OraTHSNG42Np+meP7qZ0yjgF1xVOIS/f8tpBXhkUGWsKfcN8//5RivBVhrcKN+WEyxe5rc7xWOcP0bWeVjfnxuhCRpe4EifMcY4Rh0clEw82cOxliEeqFGuWOczUrxt56f0ydOTjkQX3Iowdv4jcC0IjxCgnhgSH0J4L2e2tXIJvF+J4XKD0ZKsLuXE13KZRu3IhyCaeyGJ3dKZUOkWTU7vkJZ+pyQH68s++he6/xx/RAInJaS0Bk5OD9OCD+/jSM8kHa+toyu+BWwrr3YnBcyV6M3TlOror1zjgegNN8w+Tpm3Vbdogd6G2ZAznT1FdPWek7uB2MmeO0WzU6NQTv8ECTDz37hkQj+HTKwUjKgoWnaOgxwlsFiadEpiRbbgnG92NL6aQ3U0nrMmr7zKtZnkIxcqLaXGpTK8cXaZLl/M0v+Dfoh0eStGdbxmnj3/ibhocSFMqUqYUz8UCtw4dyjGCkqhGFtHwTrrhgfPVTuc/gbBwHowey2kbjwtYzhGtFFAS0ejdn6TdH/kPIndDwCGAM1/7dzLnAHdO2Zd7OYpEcwr0bEBIN+G+49gTgpHD6MaOz3A6JTDDAzqnYlYs16hQRQ68mOSrD9DySony+RoNj/TTzokhtmGhGeUYdeqvL1IE05HAz0ccnf+8eoFzgNUlbkCHYHgnvcUOsCxqyCbM2oLc1iOst9bXHgfAnxA4IFcmmsW397BhYOo+OvD4H0uMbghMGUA8OSjzEuZBzMPe3M+NKfOVO/cKmXA7lznh/hpA7fwRsmsY7Fg3KFndxPW4yROEBk5FaMdARL6NLR6Py1QyOTVKd751iiamRmQBiquOOF+q9dX4sotHP6R36+7mKVzqaXVTN083stE9m3A0QnuuZGWXdyEuA1zzAGka/nA4l4E1CLiJA44w5bgXAVnj4ItEekGLQyT6cc+cM+LpADd92q0NxIZCoaMCEq6Fa1qNA66EuBoulbW6G9aGvLy68HSUF5yJAo3G1mkwkqN+ylG6yby+RAM1XqXXl7kutY55dCdbNyDMpRMarrZ2vBshL+Xt0iqUI55yhaZtJQOTGGsmyFAbVXz31cZocYhYgkcIaThdWHoea7zWJelR4KJrD/ft6GGml5k47QlltZPdvDXM1zUedEvEjR5rlnhEyFGinqUobuKYUSGYl58WvDPpOVAyuufYGieQN4e1lqF1DnD8ia55Kw+mCeYV5Eoalz9UBreyQ3jAK2nx1+MbXK0jRN8we5QWJiMEy+GRweqII3HFbnTLTbgQbHIAzkGYeN10r4ywbvKROnUhG6cbvzICkEc7jh6pccBhC3KfNE07HsxDuQu1KbcyA1MESGTu3NhsqyI7xJWOEKkRPvfqkdUq93g7MjhrAzti2HsR7shQLKzT0sx5WpmfoYpsW9ORgyNqnBZu0opu8m9LCDPhpnwvTHQnrVcv1WXE8nQdtawuBBk2o7dyPsngbe4beFzmcxvWhbz0bhma1uewmzI9buKaDgjSsDYcTuLZVKyWr9Qh0ri2Z0/lXHBzyhsBnEIQLhUTbu0NWpq9SOeOH6bF2WlamLlA504epZUFPFjReC09Pay3JTM6Mdk4m+G9EYA0Lvd7pealvNt9A5cqlRrNzmfp1NkleuN8hmYXctzB7Mjq563w6+BzlxT2trwklnoolKNchZahzmDr6z647IYWh4j3j3q9RR4zo/c4vdjr8WK3ekO+VhBOcJHb/++ejNJXvxmh519t0uzMHOXW+Pqf4/jeb7g4VdDeSjgwlfnDcKu7nI++jb2VNJ5yQ8a5NU2XMkxd/bJs3ZhLeqVcvkznLixTFtd9jDpshRpdnMtTrlgN5Nme3Lr5spbr6AiTT04Dbu2Gs/+JjL94/xiqsiHarCGQUL0cj5Stt9m1gZCVTcE4octzl2luOUrPvprgy9UEz18JujATp289QzQ3N8vrkTYrfZPe1YVMnLCOkyVpPF3DPb0N3wz5aYEw156ohHjKRed5W2VuGl6IX55bh5EWMhH62g+j9JWvReg7B4lmF5s0n6lRsaJxFZa70HpI5oBZG1jVhnvBlktljM4f3Hwig+LSrhujdYTAj3zxSYYHy/MMeKyMGBgVgiOD2Fiu1yqUW12h107zdb/Z9Wy3wheLUXr5tRqtLON7oLVnbI78tQHK6sy1fv5agTlkr75uXD6hHTjiKFnZtXUgnB8Qy6vrBXl+cu4S0XcPRmk9h9/ViNFyJkpPPkd04g38IDzu8fDJ5vicSLmMPpBRXhfOjuDyIJn6mDDselMbX3HIUmBjtDgE/CmewtcDaiUwSqCyogv5snp5k0r5HJUrJLuG8S4EnAHfeI8vOYdznOKTMD2TpwpHsj0pSO5VS3duKawHCWjl0nOEq60d1x6lccJk09o4gMfN6h4/uVSrR+jQMT127Rj6oyvoIK8cI55Wm7SQ8/d2SIaW8YfPbZkKLYN1Y9C62Pq0EqYMGzfe39uv+bVxCE6cHuJyuXD2Lni7erIltYPgfeClYoEy6/o9cvjEDmfcJcS7EnaPwqHDiFPkDmu8OEDqyW6ePtfyrG4prLPBIaNb5zW6pjFceiT0YFmQA1ziQde83TCbxvZuvH1VLvNaYVbOgrwagFcB0EmU1PajF6t8LrgDFZOSpyX8SZ7CtSwWgtzawcN/1mbiFHgJI3HZNrD3J5hvjLYOIStSrhgyqtb0JAqxLmR068HVSoXyRavhxGiF4ExaQaLL81U6fHSdVgu6LmlHSN3KtR5WtxTWeyHtLJ04nFnl9tzm4ZPVAfAK3p9g719a1Z9fss6g74qoDFuzEeUOUqZCLUWFuvl2Py7Iz0the7fHzYcXHib+sHKdRx/2TZGjiT4avOODLG2M9g4xOMnHqo5g71ZqbwD3rzi0p/Bag9cQ+ZJuVsG6A/sS5KuLZZMoNqvoSPPUjxbpjYtFyldxUvy1Qff7BtD9cCETLmE2ToDziQX37hvAKTXck5351Q9rQ6YckOQppGn4Q7kpA8cOZHM6WgJoJHy/J0ZK5WqfvlylHz6fpWxtmCqNhMmrG9lyjeyMXBrm6ByWK6N+ki0N7O9tdADaOkRyaEoFzg03p7zegNyZXB0yVtaVqo4IcCD95njd7IqThDuemCoQ9vQzs1SJ8BoFj69N75e8DO+NAKRxufYG5RoHHLYg90nTtupAK3ehtiDHyMhrIW7xSi0Y28LGBhDj+Kk8vXSEnSKyi+qU1B4O4ph65aLxRDeJAlzFALfAj82KkWlg77vV2APajxBDu7j2aCxtROkFxithc3XrrVjRWifA+wT2ZROQ3b0E55hbyMuPnFfNOwZSDvIwvD0hnkNSD+0Z0L36hDnqJ3W0vcjh/MeCsSlZXfMwXOJB1zzbks2LzwGAaRZ7OeEg8mqA0zHQaWC30+rTBxfpyOvrlI3fxjVNiE3+wF2Z/1gQ2eMa6nNrY1aosCeYuIMH/hGq1RPaOkRqZC9/auZoaO0lzE0Brg7CTximkhFudH1kbrewBZ0BJ45oYmJQHlXrlj/NR/IyvJWAdnanHvzZyr0OwqQ2j0vv8/OwFMyTuRdP0yosd2HSRDEl8CllVZyBncXuBrfnQByCj9tuAMYp+Pq3zlOxGqdS+gCXg7IM8YfLAcjClTHX+ohurkKyPH1j6Qd5+I73U3L0AJSe0NYh4gMT+mIL1xa3W7VXueTM/0xxvrycGI/LSZBRwYwQWEeAo3fAo2PxCH3yk3dz5fnqo5Hn/P37GshHZKN7tracD9xw2JSs7No6EJdh1ySunT+CHL3Yi6dlIky4GXk0rnJtFJCOhvYtMpdgkzDO13+3pEknXl+mWmIn1WN9kl/wOEwZUqapHxzBhIluOCjPo4PGb9LQW34KteoZbR0CSA7s5E+MEDq8wRPDhHDwVDpNdx5I0R379PckEKLeD0mxZ88Q/eovv4/uuHOSkvUVHiEqbNU8fAJ8rr3ActMLhGscrYflraRpXe6kld7k5gWoHOASAN3aGKYiwsxcjw88bpbL7ZhZYIPs6MBdtmp0f6TQcwuwSTphM6E3kFpHAgeuEgggHmkilC+rMT12gEbu+YzIvYJHfKfVHMwf/J+UOf2UyJMjMRrp40KM1ymYm6Tw2pnLS9wDiE6fr9BqjhdX0bhuYeODvFN+BmGCEviJxlqGEvVVSWfTB/IUZvLlPxwaqijc6o7dB8tQ0dCe2QgblNOqA44MuxZsoIJfHw0u4ucJlhv09WfKdGlOp1K8M2KvORAfdfZePWSy+NVffR/t3beDkrnXKV6yb1qZAm0BgfoBrfpCLk5r5sHm5MM/Rzvf969V6REdHSJ/6QWafvJ3RcYPfe0blz3drNnoenB6QviPDw4Pc/DSap10S1s0npDflUglmpSM1mTziqxDbB5e0SEetoN5DW3DGC3xmDsnDvVSNeRITBgZNDqsvq6wgmcwMLomYB4Mr9aadHGhTgePVOjl41W5zGx1CB49ZXTw0z780F56/LPv5Dyj1J95jocLvKGl8f36ojiWrEE/AihUozSz6g/6b/3CX1Fy5z1G6w0dpwxcqsgr9Nz7C+z55Yrdk8jU5r4B6jkymKSpcbxsgv2OdRpPlWg8vkIDjRVK1LIcT5996DzYhps5Gwcu5XjchIVt7UjSK0mewjWNx00ZGu5zCeN5mgUTd2PukryCzyfi9r089LOOEcAuru0CG+sH1xnufttO+pmfuU+cIV64yKtB7CFx642yjA4nkLSQoUK2tiatyjdSqzx+/+c27QxAR4fAkQ3sfRcLWkAeNzq4IjrnwnOVtyOEJaI8TvCooDZAvb0zh/Or3J63kqbV/Fu5C78OPndJYedtSczkqxrP081qXqJJPJbNWiLNV1t7JlP08P19iNoRoyNp+pmffht98YvvojhPpfHKMiULZ9xCu8AECuMP/s+WopTHvQdGangX7Xz3l0XeLDpOGcDqyW/S3ME/ZKlJ6QTR/nH4D0f3khge0BGumi8oR1GoMvu98rDOfwJmOMkmlfz3tDaArhmr3imehRffqPwH1cKtl802oDMpfKnIa+X5tYR8hdH8UoNO8ZpqLccjBNbQPArsmuqnO+8cpbveOkExvMOZSFKiukSp3AktQODnp4DOJbr1dSqABenMWpzK8oJ2hHa9/9do/MGf18BNoqtDVHPzdPZvfoVHLNySbdKu4SgNs+O7DSkIH0jLgYXtAMuihuIA7fKTAoP2dg5lo7U4lMAKnsHA6C3xLEK6Vx9Vw+Hr3FtXi3z5yItq/Ggbrh6wnpIfcmMejSXFGZKUp1RlmqIVnk4Dx9cJCLcF+xXAk9O1InSiwb0P0oHH/0zkK0FXhwAufee3KHfpZZGTPEfuG8NDG5PES6rcb5A2DcQ9XKPbNIxQeo+H7RvGA1gWNWQTxpwrYhhbbf1COsIlnl//IEJ6oHzA1/GdFPlqkuqRFDUj6gy46sI34yUiZUo2dGd4AH4FbMU2AK8b2PkWczrzR+Mpuv0zf0DpPY+IfiXY0CFKSydp+pu/qS96cNTRgQhNYLsEEEhqZeae2bEJ6677DeM3iOo4P9o8Ptd4CsM1onIDxClV6lTiNRB+Oa+vP0by85aheIqQvkF4oH4s+PU22Yfia0RwVR2hA8LpmZwCChW+qlgz0zgb9n/gX9HQO3+B5SvHhg4BrBz5Ki28+Bdcrkbdy1cRuBT1Kmzs/gkKNahj98GyqCGbMGsL8bC9JZ6F6qvZKi1mynrzx1sxEu3emaThAb0S8DqkcFtfOd/MQ/l65Vl00L0MeolvSzQsWIEQfEOuEqHZrPlWEMbU/Z+mHR/+T0a7cvTkEMDMt/89rU+/JHKanWE/O4V/IDYLqzNdxX2DsO47FKJrMwmXaBpXoTJut19eLNN6vk6nLkZpdglfXhrhy+ImffDhJg0NRujOPbygs1OfhVcfVYN5A0YH43jtHCige/mZdBtig3gmY6wXsG6w8Yf2PEj7P/u/Rb5a9OwQpcXXeer4t1QvF7gaTR4hIrR7BHfjTATvYJh7OTo2YRvont37UA6xjYNJg3D5yEbOO/9haphZKNH8Cr7YNM7X/lEOUzfCs4NUqkmPf5Ro13iMhvpt5U2eYJKRX4aig+6ZN4gvFQxU1OcBdAzwsFKI0jKTgKP1738v3f4YrgSvDTrfhwghPXEP7XjH51nSXoCdw9N80mt8AYLTDVuQ46A6cY3Tjius3Ikr7CwgjD8KRXaGxYqMCt8/lGAH0G+GTSXAEyJXeN5dXovguZWkcwkfHhfB6A4PAMauEQzCFXXTuLIXBm4DfKwUY74zMAbe8rFr6gxAzw4BjL/zizTx4Be4WfQmVYV73LnlBpW8J6IYxg03d/yCd9ws1zjC0ciO3pYkjiFH9vLksvLFGs2uVOiF4w167ghOqfn+61iMkomEbGHDfkbcSq41ILMLSlrNB3+BPME11OfGJtwlN8wjMCN73NiM6skSZowB7gNrhuWccRIOGrrjw3Tbp35P9WuITTkEsOPhX6Rdj/yiyKgeejZGCtyQgWxtWnVX1wNtzzWOIswBjcuRFJg+mKya45FhbqVBTz5fp6MnMY2xOzCBwykAf8MvryWGE4QfG2RR8rAcgCxcPt364cPUA6IYfD0INxP+cLlL1iZcBJVDwN7IpTyvGUxQ/+Q9tPfj/0WVa4xNOwQw9o4v0v6P/UfuvP6ocCnToGxJZSEOQ+/2dCar84fPvXh8Yo1NOJ/oQG/twPFAaWGtScfO1uj18+Ybbnk+AJcNKjyK4WGSPENgjkfTYyMJvgR162by5JHGqxca2todLuTUTWBsXrhHJszjIbJpPA4YXUQtZ4kXkPK1oWyOxtM0+f5fo2hiQONcY1yRQwADt/0k3fWFv2Sn1QMAn+OGsY9ewz0/6PfmgAPcygwTWdI6I4FflgI3u/C2XDSaoONn9BtfQeoUugEFjmB3cOFh08SOmFwlmYHDyduBqwQCQvCGE3AmwzwCArxdQDuYMGZL+TgV7B5NZpM/8SvUv++9ql8HXLFDAPHhPXTPL32f4qkhdXD+WMg2aTnPDYPGM71PuY4EATINbBIrlzCVNQ/D8Wniubze0D0XFR4pAN1noE8VsTHF7uDSJ451mpzi6SLh5MF/XhmwuWRt4B4BRg7HMcwjsRklkA9gOWDkUNzVIm6BsxcY89jdn6LxB/8FYl43XJVDWNz18/9A6XHs29ORYoUdYkm+rd6dg5Xr0VmYIzUdQNcGVg6Iyo3gcaZkMsrTQILuvUtvn8IhdJeSPnrGtjUdIXT72uBgUr6dLZA3f3j1E4OpVwvcVJJIETJ7hI9wpdvCxjEf/J/nq6FFu25gGtj9AE19+DcR4brimjgEcMfn/4IG9ryLnVt7eIadYh4vfZvRAD1SZJxo9ADRN+Y++XO9yqr3x6s8r8bpPe8ao10T+tKLjA7iCLqvU/d41nhxVqXh4T4+v5oHf0getn4siE04ELZJ3DCZeO3IS+vE6ZqfxqvwInJ+nZ3B2OPpMZr64G/wuqEfOV1XXDOHAA58+n/Q6N0fNxpR1vsWNIXXScTru68NrI40CFceJHxgcTjWV6JUXx99/rHbaXxMncJuTlHH0A2uaPSpPaN8xcHOIBloOa2QQL8Qowp3CR8eF6E7JI6bRplHjCbHuZxN8IJYdQTs+sCvU3ryAaNfX1xThwB2f+S3aOLBL7LER8QNkOPL0ZlVPlqWtTeCTO80DWJ7pw33uLF5PGSTOEx9kRyNxjPc+1P05Z97O73noSmvfWSBaehDH7yNp4x+ijV55cu6DyOLTfNVbmxG9WXD8RFIE0IgzOUmzKiezB/TmShPd9DFQJOPfJmG7/60yDcCPd+63iyWXvhjWnzJ3l/nRktEaN8Irp1UDyKko0poUM/cPr5E49HERq9TjIrJA1SNj9HiYpGeOzRDmUyJBodSdN+9k3Tf/XsoWbpAycI5Sd8K5GsLDlRA0RIcCu+I3vK7tMr1r3EflXwjNPGOz9LEh36L5RuH6+YQwMrhP6f55/6Qj1eHf/zy44Fx3Yan5yFcdEhvqVoHHUwyVL0eH6Jqei/VkxM8BibYaRBIFCvNUSp3jIcNM2WEs2vBhhEUKBdlCIfO1Db/jgF0cTXOaxyEKSbu+ShNfOy/Ge3G4bo6BJA5+lWae+b3jcZOwWulPTxSyO85bNDg1pH8820dyZ7WUHq3QQQcIz5AjQh+FqFB0ar5amMP4fRMwQIMWgwdsEE8N1g43nshXjMEnWHswMO0+9Er3/V0NbjuDgGsnfg7uvz9/8rnQRsUN4V2D9WpLxkquqUqHXQwc0KDaKfbFjDMqo7ZR4uhA0wGrgN2zK9tgKBSj9AcX024zjC46wE68Pm/NNqNxw1xCCB39ns0/6P/TpXcvJwf9PjJwToNp93ijQzG4e1GBF9nzQsw6TbEBvHc/OwU0BVeAtFa4AaH6in3GXK8gMTPPxmMvP1R2vtTv2O0m4Mb5hBAeekUzT39u5SfPWIsPDz2N2lHf13Ovw9TJa9m4SqGdLcBAw2AQBcdA9pjw/wsNpev7oPEnOlj8iO/Qzvvf9RoNw831CGARrVE80/9Dq2e/o53vtOJJk0MNigVt1UJVclrmI2qivA2DeOaAzwUryPchA7a5tcmngM8tcwU/at9fPXCFDvD8G29f6nH9cQNdwiLxef+gC9L/9xouq7Y0d+g0T69R+GjXfXMiUe8QIMwBdAxoD02zM9ik/kysJ9htciXleZlGmBw3yPsDL9NqdF9xnLzcdMcAsie+Fua5SuQeiVvTm+T1xQN2smOEZc7txtVbYOGcYOFbxDfQ4d4rtnmt8FaAwtHPKRa42nCxc6HfpYm3/9vjLZ1cFMdAshfep7mn/49Kq2cY02rgs0rGCmGU9ifZ054m/ZpRa+HgnihfNvm3zFgQ1TZEdbL+rQSXwBm0bfzbTT53n9JA3d8xFi2Fm66QwDV9Vmae+o/0/qFg8ai6OfL0hEeMQZTtoqhqrrtFWi3FkMHbBDPDRa+UX7Y3aSOkGWq8+znYscDn6ed7/91it2Ah1RXii3hEBarR/8vLb/6V1RevWgsigFedI7wNAIeRK9VNy16nUaEAq8LSrUoFXmdADmMvh1voR3v+SUavusfG8vWxZZyCKBRWaflF/6IVo7+NdVr+uXhFgM8YgzwaIHfpMQVifwcmLQfH8I1vm+Azl3jGQtDP74RFnKjGZU7i+j5DZ4G8AwqPAq4gCOM3vc4jb3znxvL1seWcwiL0vwRyrBTrJ3+NjXqQcewSLJHYLNLKsFXKRF2EG5JXK3gt6ZizPETQ+BoPH3iGRGfwbfTN7lx1YZw+AA3fI0doIEvT8PObFPIJoGvYurf+xAN7H8vjdz7OWO9dbBlHcKisnyaMsf+mlZPfYvqpfCziE0CR2oHCDuydBsxekAs2S+7oNOT91Pf7nfRwO0fInyd0q2KLe8QFrX1y5R947tUmj0so0cpt9ymgR0eQMeAzojwsJMep+TgBKWGp5jvosTwLkoO7aX44E6Kpccomh6lWAq/hvzmwS3jEGHUlo5TfvoglTIX2TmWqFnOUL24Qo1ihpqNKh9ZnBpMmEjkexmiMe7OCZ5C4vKzz/jeBvTkWD837sAkxQemmO8SHh/aLV/vnEiwU/yY4ZZ1iG1cHwRvn23jxx7bDrGNALYdYhsBbDvENgLYdohtBLDtENsIYNshthHAtkNsI4Bth9hGANsOsQ0HRP8fjeom1jWeBVwAAAAASUVORK5CYII=;" vertex="1" parent="1">
          <mxGeometry x="386.5" y="1100" width="32" height="32" as="geometry" />
        </mxCell>
        <mxCell id="lEaRyh61AleIMzdtigNR-45" style="edgeStyle=orthogonalEdgeStyle;rounded=0;orthogonalLoop=1;jettySize=auto;html=1;entryX=0.5;entryY=0;entryDx=0;entryDy=0;" edge="1" parent="1" source="lEaRyh61AleIMzdtigNR-43" target="lEaRyh61AleIMzdtigNR-28">
          <mxGeometry relative="1" as="geometry" />
        </mxCell>
        <mxCell id="lEaRyh61AleIMzdtigNR-43" value="" style="image;html=1;image=img/lib/clip_art/people/Farmer_Woman_Black_128x128.png" vertex="1" parent="1">
          <mxGeometry x="240" y="741.91" width="80" height="80" as="geometry" />
        </mxCell>
        <mxCell id="lEaRyh61AleIMzdtigNR-44" value="Login" style="sketch=0;pointerEvents=1;shadow=0;dashed=0;html=1;strokeColor=none;labelPosition=center;verticalLabelPosition=bottom;verticalAlign=top;outlineConnect=0;align=center;shape=mxgraph.office.security.key_permissions;fillColor=#7FBA42;aspect=fixed;" vertex="1" parent="1">
          <mxGeometry x="305.0000000000001" y="830" width="15" height="31.91" as="geometry" />
        </mxCell>
      </root>
    </mxGraphModel>
  </diagram>
</mxfile>
